<?xml version="1.0" encoding="UTF-8"?>
<svg width="700pt" height="700pt" version="1.1" viewBox="0 0 700 700" xmlns="http://www.w3.org/2000/svg" xmlns:xlink="http://www.w3.org/1999/xlink">
 <defs>
  <symbol id="v" overflow="visible">
   <path d="m18.766-1.125c-0.96875 0.5-1.9805 0.875-3.0312 1.125-1.043 0.25781-2.1367 0.39062-3.2812 0.39062-3.3984 0-6.0898-0.94531-8.0781-2.8438-1.9922-1.9062-2.9844-4.4844-2.9844-7.7344 0-3.2578 0.99219-5.8359 2.9844-7.7344 1.9883-1.9062 4.6797-2.8594 8.0781-2.8594 1.1445 0 2.2383 0.13281 3.2812 0.39062 1.0508 0.25 2.0625 0.625 3.0312 1.125v4.2188c-0.98047-0.65625-1.9453-1.1406-2.8906-1.4531-0.94922-0.3125-1.9492-0.46875-3-0.46875-1.875 0-3.3516 0.60547-4.4219 1.8125-1.0742 1.1992-1.6094 2.8555-1.6094 4.9688 0 2.1055 0.53516 3.7617 1.6094 4.9688 1.0703 1.1992 2.5469 1.7969 4.4219 1.7969 1.0508 0 2.0508-0.14844 3-0.45312 0.94531-0.3125 1.9102-0.80078 2.8906-1.4688z"/>
  </symbol>
  <symbol id="b" overflow="visible">
   <path d="m13.734-11.141c-0.4375-0.19531-0.87109-0.34375-1.2969-0.4375-0.41797-0.10156-0.83984-0.15625-1.2656-0.15625-1.2617 0-2.2305 0.40625-2.9062 1.2188-0.67969 0.80469-1.0156 1.9531-1.0156 3.4531v7.0625h-4.8906v-15.312h4.8906v2.5156c0.625-1 1.3438-1.7266 2.1562-2.1875 0.82031-0.46875 1.8008-0.70312 2.9375-0.70312 0.16406 0 0.34375 0.011719 0.53125 0.03125 0.19531 0.011719 0.47656 0.039062 0.84375 0.078125z"/>
  </symbol>
  <symbol id="d" overflow="visible">
   <path d="m17.641-7.7031v1.4062h-11.453c0.125 1.1484 0.53906 2.0078 1.25 2.5781 0.70703 0.57422 1.7031 0.85938 2.9844 0.85938 1.0312 0 2.082-0.14844 3.1562-0.45312 1.082-0.3125 2.1914-0.77344 3.3281-1.3906v3.7656c-1.1562 0.4375-2.3125 0.76562-3.4688 0.98438-1.1562 0.22656-2.3125 0.34375-3.4688 0.34375-2.7734 0-4.9297-0.70312-6.4688-2.1094-1.5312-1.4062-2.2969-3.3789-2.2969-5.9219 0-2.5 0.75391-4.4609 2.2656-5.8906 1.5078-1.4375 3.582-2.1562 6.2188-2.1562 2.4062 0 4.332 0.73047 5.7812 2.1875 1.4453 1.4492 2.1719 3.3828 2.1719 5.7969zm-5.0312-1.625c0-0.92578-0.27344-1.6719-0.8125-2.2344-0.54297-0.57031-1.25-0.85938-2.125-0.85938-0.94922 0-1.7188 0.26562-2.3125 0.79688s-0.96484 1.2969-1.1094 2.2969z"/>
  </symbol>
  <symbol id="c" overflow="visible">
   <path d="m9.2188-6.8906c-1.0234 0-1.793 0.17188-2.3125 0.51562-0.51172 0.34375-0.76562 0.85547-0.76562 1.5312 0 0.625 0.20703 1.1172 0.625 1.4688 0.41406 0.34375 0.98828 0.51562 1.7188 0.51562 0.92578 0 1.7031-0.32812 2.3281-0.98438 0.63281-0.66406 0.95312-1.4922 0.95312-2.4844v-0.5625zm7.4688-1.8438v8.7344h-4.9219v-2.2656c-0.65625 0.92969-1.3984 1.6055-2.2188 2.0312-0.82422 0.41406-1.8242 0.625-3 0.625-1.5859 0-2.8711-0.45703-3.8594-1.375-0.99219-0.92578-1.4844-2.1289-1.4844-3.6094 0-1.7891 0.61328-3.1016 1.8438-3.9375 1.2383-0.84375 3.1797-1.2656 5.8281-1.2656h2.8906v-0.39062c0-0.76953-0.30859-1.332-0.92188-1.6875-0.61719-0.36328-1.5703-0.54688-2.8594-0.54688-1.0547 0-2.0312 0.10547-2.9375 0.3125-0.89844 0.21094-1.7305 0.52344-2.5 0.9375v-3.7344c1.0391-0.25 2.0859-0.44141 3.1406-0.57812 1.0625-0.13281 2.125-0.20312 3.1875-0.20312 2.7578 0 4.75 0.54688 5.9688 1.6406 1.2266 1.0859 1.8438 2.8555 1.8438 5.3125z"/>
  </symbol>
  <symbol id="e" overflow="visible">
   <path d="m7.7031-19.656v4.3438h5.0469v3.5h-5.0469v6.5c0 0.71094 0.14062 1.1875 0.42188 1.4375s0.83594 0.375 1.6719 0.375h2.5156v3.5h-4.1875c-1.9375 0-3.3125-0.39844-4.125-1.2031-0.80469-0.8125-1.2031-2.1797-1.2031-4.1094v-6.5h-2.4219v-3.5h2.4219v-4.3438z"/>
  </symbol>
  <symbol id="l" overflow="visible">
   <path d="m12.766-13.078v-8.2031h4.9219v21.281h-4.9219v-2.2188c-0.66797 0.90625-1.4062 1.5703-2.2188 1.9844s-1.7578 0.625-2.8281 0.625c-1.8867 0-3.4336-0.75-4.6406-2.25-1.2109-1.5-1.8125-3.4258-1.8125-5.7812 0-2.3633 0.60156-4.2969 1.8125-5.7969 1.207-1.5 2.7539-2.25 4.6406-2.25 1.0625 0 2 0.21484 2.8125 0.64062 0.82031 0.42969 1.5664 1.0859 2.2344 1.9688zm-3.2188 9.9219c1.0391 0 1.8359-0.37891 2.3906-1.1406 0.55078-0.76953 0.82812-1.8828 0.82812-3.3438 0-1.457-0.27734-2.5664-0.82812-3.3281-0.55469-0.76953-1.3516-1.1562-2.3906-1.1562-1.043 0-1.8398 0.38672-2.3906 1.1562-0.55469 0.76172-0.82812 1.8711-0.82812 3.3281 0 1.4609 0.27344 2.5742 0.82812 3.3438 0.55078 0.76172 1.3477 1.1406 2.3906 1.1406z"/>
  </symbol>
  <symbol id="k" overflow="visible">
   <path d="m10.5-3.1562c1.0508 0 1.8516-0.37891 2.4062-1.1406 0.55078-0.76953 0.82812-1.8828 0.82812-3.3438 0-1.457-0.27734-2.5664-0.82812-3.3281-0.55469-0.76953-1.3555-1.1562-2.4062-1.1562-1.0547 0-1.8594 0.38672-2.4219 1.1562-0.55469 0.77344-0.82812 1.8828-0.82812 3.3281 0 1.4492 0.27344 2.5586 0.82812 3.3281 0.5625 0.77344 1.3672 1.1562 2.4219 1.1562zm-3.25-9.9219c0.67578-0.88281 1.4219-1.5391 2.2344-1.9688 0.82031-0.42578 1.7656-0.64062 2.8281-0.64062 1.8945 0 3.4453 0.75 4.6562 2.25 1.207 1.5 1.8125 3.4336 1.8125 5.7969 0 2.3555-0.60547 4.2812-1.8125 5.7812-1.2109 1.5-2.7617 2.25-4.6562 2.25-1.0625 0-2.0078-0.21094-2.8281-0.625-0.8125-0.42578-1.5586-1.0859-2.2344-1.9844v2.2188h-4.8906v-21.281h4.8906z"/>
  </symbol>
  <symbol id="f" overflow="visible">
   <path d="m0.34375-15.312h4.8906l4.125 10.391 3.5-10.391h4.8906l-6.4375 16.766c-0.64844 1.6953-1.4023 2.8828-2.2656 3.5625-0.86719 0.6875-2 1.0312-3.4062 1.0312h-2.8438v-3.2188h1.5312c0.83203 0 1.4375-0.13672 1.8125-0.40625 0.38281-0.26172 0.67969-0.73047 0.89062-1.4062l0.14062-0.42188z"/>
  </symbol>
  <symbol id="j" overflow="visible">
   <path d="m20.922-1.5156c-1.3125 0.63672-2.6797 1.1172-4.0938 1.4375-1.4062 0.3125-2.8672 0.46875-4.375 0.46875-3.3984 0-6.0898-0.94531-8.0781-2.8438-1.9922-1.9062-2.9844-4.4844-2.9844-7.7344 0-3.2891 1.0078-5.8789 3.0312-7.7656 2.0312-1.8828 4.8047-2.8281 8.3281-2.8281 1.3516 0 2.6484 0.13281 3.8906 0.39062 1.25 0.25 2.4258 0.625 3.5312 1.125v4.2188c-1.1484-0.64453-2.2812-1.125-3.4062-1.4375-1.125-0.32031-2.25-0.48438-3.375-0.48438-2.1055 0-3.7266 0.58984-4.8594 1.7656-1.125 1.168-1.6875 2.8398-1.6875 5.0156 0 2.1562 0.54688 3.8242 1.6406 5 1.0938 1.1797 2.6445 1.7656 4.6562 1.7656 0.53906 0 1.0469-0.03125 1.5156-0.09375 0.47656-0.070313 0.89844-0.17969 1.2656-0.32812v-3.9688h-3.2031v-3.5156h8.2031z"/>
  </symbol>
  <symbol id="u" overflow="visible">
   <path d="m12.766-2.5938c-0.66797 0.88672-1.4062 1.543-2.2188 1.9688-0.8125 0.41797-1.7578 0.625-2.8281 0.625-1.8672 0-3.4062-0.73438-4.625-2.2031-1.2188-1.4766-1.8281-3.3516-1.8281-5.625 0-2.2891 0.60938-4.1641 1.8281-5.625 1.2188-1.4688 2.7578-2.2031 4.625-2.2031 1.0703 0 2.0156 0.21484 2.8281 0.64062 0.8125 0.41797 1.5508 1.0742 2.2188 1.9688v-2.2656h4.9219v13.766c0 2.457-0.77734 4.3359-2.3281 5.6406-1.5547 1.3008-3.8086 1.9531-6.7656 1.9531-0.94922 0-1.8711-0.074219-2.7656-0.21875-0.89844-0.14844-1.7969-0.37109-2.7031-0.67188v-3.8125c0.86328 0.48828 1.7031 0.85156 2.5156 1.0938 0.82031 0.23828 1.6484 0.35938 2.4844 0.35938 1.6016 0 2.7734-0.35156 3.5156-1.0469 0.75-0.69922 1.125-1.7969 1.125-3.2969zm-3.2188-9.5312c-1.0117 0-1.8047 0.375-2.375 1.125-0.5625 0.74219-0.84375 1.7969-0.84375 3.1719 0 1.3984 0.26953 2.4609 0.8125 3.1875 0.55078 0.71875 1.3516 1.0781 2.4062 1.0781 1.0195 0 1.8125-0.36719 2.375-1.1094 0.5625-0.75 0.84375-1.8008 0.84375-3.1562 0-1.375-0.28125-2.4297-0.84375-3.1719-0.5625-0.75-1.3555-1.125-2.375-1.125z"/>
  </symbol>
  <symbol id="i" overflow="visible">
   <path d="m14.312-14.828v3.7188c-1.043-0.4375-2.0547-0.76562-3.0312-0.98438-0.98047-0.21875-1.9023-0.32812-2.7656-0.32812-0.92969 0-1.6211 0.11719-2.0781 0.34375-0.44922 0.23047-0.67188 0.58984-0.67188 1.0781 0 0.38672 0.17188 0.68359 0.51562 0.89062 0.34375 0.21094 0.95703 0.36719 1.8438 0.46875l0.85938 0.125c2.5078 0.32422 4.1953 0.85156 5.0625 1.5781 0.86328 0.73047 1.2969 1.8711 1.2969 3.4219 0 1.6367-0.60547 2.8672-1.8125 3.6875-1.1992 0.8125-2.9922 1.2188-5.375 1.2188-1.0234 0-2.0742-0.078125-3.1562-0.23438-1.0742-0.15625-2.1797-0.39453-3.3125-0.71875v-3.7188c0.96875 0.48047 1.9609 0.83984 2.9844 1.0781 1.0312 0.23047 2.0781 0.34375 3.1406 0.34375 0.95703 0 1.6758-0.12891 2.1562-0.39062 0.47656-0.26953 0.71875-0.66406 0.71875-1.1875 0-0.4375-0.16797-0.75781-0.5-0.96875-0.33594-0.21875-0.99609-0.38281-1.9844-0.5l-0.85938-0.10938c-2.1797-0.26953-3.7031-0.77344-4.5781-1.5156-0.875-0.73828-1.3125-1.8594-1.3125-3.3594 0-1.625 0.55078-2.8281 1.6562-3.6094 1.1133-0.78906 2.8203-1.1875 5.125-1.1875 0.89453 0 1.8359 0.074219 2.8281 0.21875 1 0.13672 2.082 0.35156 3.25 0.64062z"/>
  </symbol>
  <symbol id="t" overflow="visible">
   <path d="m14.953-3.7188h-8.2188l-1.3125 3.7188h-5.2812l7.5625-20.406h6.2656l7.5625 20.406h-5.2812zm-6.9062-3.7812h5.5781l-2.7812-8.125z"/>
  </symbol>
  <symbol id="a" overflow="visible">
   <path d="m9.6406-12.188c-1.0859 0-1.9141 0.39062-2.4844 1.1719-0.57422 0.78125-0.85938 1.9062-0.85938 3.375s0.28516 2.5938 0.85938 3.375c0.57031 0.77344 1.3984 1.1562 2.4844 1.1562 1.0625 0 1.875-0.38281 2.4375-1.1562 0.57031-0.78125 0.85938-1.9062 0.85938-3.375s-0.28906-2.5938-0.85938-3.375c-0.5625-0.78125-1.375-1.1719-2.4375-1.1719zm0-3.5c2.6328 0 4.6914 0.71484 6.1719 2.1406 1.4766 1.418 2.2188 3.3867 2.2188 5.9062 0 2.5117-0.74219 4.4805-2.2188 5.9062-1.4805 1.418-3.5391 2.125-6.1719 2.125-2.6484 0-4.7148-0.70703-6.2031-2.125-1.4922-1.4258-2.2344-3.3945-2.2344-5.9062 0-2.5195 0.74219-4.4883 2.2344-5.9062 1.4883-1.4258 3.5547-2.1406 6.2031-2.1406z"/>
  </symbol>
  <symbol id="h" overflow="visible">
   <path d="m2.5781-20.406h8.7344c2.5938 0 4.582 0.57812 5.9688 1.7344 1.3945 1.1484 2.0938 2.7891 2.0938 4.9219 0 2.1367-0.69922 3.7812-2.0938 4.9375-1.3867 1.1562-3.375 1.7344-5.9688 1.7344h-3.4844v7.0781h-5.25zm5.25 3.8125v5.7031h2.9219c1.0195 0 1.8047-0.25 2.3594-0.75 0.5625-0.5 0.84375-1.2031 0.84375-2.1094 0-0.91406-0.28125-1.6172-0.84375-2.1094-0.55469-0.48828-1.3398-0.73438-2.3594-0.73438z"/>
  </symbol>
  <symbol id="g" overflow="visible">
   <path d="m2.3594-15.312h4.8906v15.031c0 2.0508-0.49609 3.6172-1.4844 4.7031-0.98047 1.082-2.4062 1.625-4.2812 1.625h-2.4219v-3.2188h0.85938c0.92578 0 1.5625-0.21094 1.9062-0.625 0.35156-0.41797 0.53125-1.2461 0.53125-2.4844zm0-5.9688h4.8906v4h-4.8906z"/>
  </symbol>
  <symbol id="s" overflow="visible">
   <path d="m12.422-21.281v3.2188h-2.7031c-0.6875 0-1.1719 0.125-1.4531 0.375-0.27344 0.25-0.40625 0.6875-0.40625 1.3125v1.0625h4.1875v3.5h-4.1875v11.812h-4.8906v-11.812h-2.4375v-3.5h2.4375v-1.0625c0-1.6641 0.46094-2.8984 1.3906-3.7031 0.92578-0.80078 2.3672-1.2031 4.3281-1.2031z"/>
  </symbol>
  <symbol id="r" overflow="visible">
   <path d="m16.547-12.766c0.61328-0.94531 1.3477-1.6719 2.2031-2.1719 0.85156-0.5 1.7891-0.75 2.8125-0.75 1.7578 0 3.0977 0.54688 4.0156 1.6406 0.92578 1.0859 1.3906 2.6562 1.3906 4.7188v9.3281h-4.9219v-7.9844-0.35938c0.007813-0.13281 0.015625-0.32031 0.015625-0.5625 0-1.082-0.16406-1.8633-0.48438-2.3438-0.3125-0.48828-0.82422-0.73438-1.5312-0.73438-0.92969 0-1.6484 0.38672-2.1562 1.1562-0.51172 0.76172-0.77344 1.8672-0.78125 3.3125v7.5156h-4.9219v-7.9844c0-1.6953-0.14844-2.7852-0.4375-3.2656-0.29297-0.48828-0.8125-0.73438-1.5625-0.73438-0.9375 0-1.6641 0.38672-2.1719 1.1562-0.51172 0.76172-0.76562 1.8594-0.76562 3.2969v7.5312h-4.9219v-15.312h4.9219v2.2344c0.60156-0.86328 1.2891-1.5156 2.0625-1.9531 0.78125-0.4375 1.6406-0.65625 2.5781-0.65625 1.0625 0 2 0.25781 2.8125 0.76562 0.8125 0.51172 1.4258 1.2305 1.8438 2.1562z"/>
  </symbol>
  <symbol id="q" overflow="visible">
   <path d="m17.75-9.3281v9.3281h-4.9219v-7.1094c0-1.3438-0.03125-2.2656-0.09375-2.7656s-0.16797-0.86719-0.3125-1.1094c-0.1875-0.3125-0.44922-0.55469-0.78125-0.73438-0.32422-0.17578-0.69531-0.26562-1.1094-0.26562-1.0234 0-1.8242 0.39844-2.4062 1.1875-0.58594 0.78125-0.875 1.8711-0.875 3.2656v7.5312h-4.8906v-21.281h4.8906v8.2031c0.73828-0.88281 1.5195-1.5391 2.3438-1.9688 0.83203-0.42578 1.75-0.64062 2.75-0.64062 1.7695 0 3.1133 0.54688 4.0312 1.6406 0.91406 1.0859 1.375 2.6562 1.375 4.7188z"/>
  </symbol>
  <symbol id="p" overflow="visible">
   <path d="m2.5781-20.406h5.875l7.4219 14v-14h4.9844v20.406h-5.875l-7.4219-14v14h-4.9844z"/>
  </symbol>
  <symbol id="o" overflow="visible">
   <path d="m2.1875-5.9688v-9.3438h4.9219v1.5312c0 0.83594-0.007813 1.875-0.015625 3.125-0.011719 1.25-0.015625 2.0859-0.015625 2.5 0 1.2422 0.03125 2.1328 0.09375 2.6719 0.070313 0.54297 0.17969 0.93359 0.32812 1.1719 0.20703 0.32422 0.47266 0.57422 0.79688 0.75 0.32031 0.16797 0.69141 0.25 1.1094 0.25 1.0195 0 1.8203-0.39062 2.4062-1.1719 0.58203-0.78125 0.875-1.8672 0.875-3.2656v-7.5625h4.8906v15.312h-4.8906v-2.2188c-0.74219 0.89844-1.5234 1.5586-2.3438 1.9844-0.82422 0.41406-1.7344 0.625-2.7344 0.625-1.7617 0-3.1055-0.53906-4.0312-1.625-0.92969-1.082-1.3906-2.6602-1.3906-4.7344z"/>
  </symbol>
  <symbol id="n" overflow="visible">
   <path d="m17.75-9.3281v9.3281h-4.9219v-7.1406c0-1.3203-0.03125-2.2344-0.09375-2.7344s-0.16797-0.86719-0.3125-1.1094c-0.1875-0.3125-0.44922-0.55469-0.78125-0.73438-0.32422-0.17578-0.69531-0.26562-1.1094-0.26562-1.0234 0-1.8242 0.39844-2.4062 1.1875-0.58594 0.78125-0.875 1.8711-0.875 3.2656v7.5312h-4.8906v-15.312h4.8906v2.2344c0.73828-0.88281 1.5195-1.5391 2.3438-1.9688 0.83203-0.42578 1.75-0.64062 2.75-0.64062 1.7695 0 3.1133 0.54688 4.0312 1.6406 0.91406 1.0859 1.375 2.6562 1.375 4.7188z"/>
  </symbol>
  <symbol id="m" overflow="visible">
   <path d="m14.719-14.828v3.9844c-0.65625-0.45703-1.3242-0.79688-2-1.0156-0.66797-0.21875-1.3594-0.32812-2.0781-0.32812-1.3672 0-2.4336 0.40234-3.2031 1.2031-0.76172 0.79297-1.1406 1.9062-1.1406 3.3438 0 1.4297 0.37891 2.543 1.1406 3.3438 0.76953 0.79297 1.8359 1.1875 3.2031 1.1875 0.75781 0 1.4844-0.10938 2.1719-0.32812 0.6875-0.22656 1.3203-0.56641 1.9062-1.0156v4c-0.76172 0.28125-1.5391 0.48828-2.3281 0.625-0.78125 0.14453-1.5742 0.21875-2.375 0.21875-2.7617 0-4.9219-0.70703-6.4844-2.125-1.5547-1.4141-2.3281-3.3828-2.3281-5.9062 0-2.5312 0.77344-4.5039 2.3281-5.9219 1.5625-1.4141 3.7227-2.125 6.4844-2.125 0.80078 0 1.5938 0.074219 2.375 0.21875 0.78125 0.13672 1.5547 0.35156 2.3281 0.64062z"/>
  </symbol>
 </defs>
 <g>
  <path d="m451.68 244.42c0.62109-0.42578 0.96484-1.2031 0.41406-2.0234-4.1367-6.1562-10.914-10.723-18.574-10.086-7.8359 0.65625-10.926 7.8164-10.879 14.762-0.078125 0.23047-0.074219 0.48047 0.011719 0.74609v0.085938c0.035156 0.79688 0.53906 1.2812 1.1328 1.4609 6.5 6.5859 23.555 2.0273 27.887-4.9219 0.003907-0.003906 0.003907-0.015624 0.007813-0.023437zm-25.848 2.5039c0-4.7617 1.5273-9.2188 5.8086-10.852-1.7461 4.4922-0.71094 8.9531 0.80078 13.367-2.8125-0.054687-5.25-0.80078-6.6094-2.5156zm13.941 1.3945c-0.97266-4.4922-2.4922-8.9766-5.1875-12.746-0.035156-0.042969-0.078125-0.085938-0.11719-0.12891 5.668-0.44141 10.953 3.3047 14.223 7.6836-1.4844 2.0625-5.0078 4.0156-8.918 5.1914z"/>
  <path d="m465.05 238.82c0.16406 0.38672 0.49219 0.69922 1.0469 0.81641 4.25 0.87891 8.4492 0.054688 12.344-1.7188 0.14062-0.042968 0.28516-0.11719 0.41016-0.20312 4.7305-2.25 8.9883-5.8906 12.273-9.5938 0.27344-0.30859 0.39844-0.63672 0.42188-0.96484 0.44922-0.57812 0.58984-1.4336 0.011719-2.1523-4.6406-5.7344-11.066-8.8555-18.137-5.6094-6.7305 3.0781-9.2891 11.48-8.9258 18.273 0.023437 0.51563 0.24219 0.90234 0.55469 1.1523zm9.0898-16.156c5.2031-3.5273 10.664-0.39844 14.32 3.6406-1.6523 1.8125-3.5898 3.6641-5.7305 5.3047-0.042968-0.066407-0.078124-0.13281-0.12891-0.19531-2.6602-3.1289-5.207-6.293-8.6289-8.625 0.054688-0.039062 0.10547-0.085937 0.16797-0.125zm-2.8984 2.6406c-0.078125 3.9766 1.5898 7.4297 4.1055 10.477-2.4922 0.89453-5.0859 1.2695-7.6875 0.87891-0.050781-4.168 0.99609-8.2305 3.582-11.355z"/>
  <path d="m484.49 256.34c-6.043 3.5781-13.719 2.4141-18.09-2.8242 0.90234-1.4062 1.7734-3.0781 1.6914-4.7773-0.085938-1.5781-1.0352-2.7383-2.4922-3.2578-2.3125-0.82422-5.3945 0.30078-7.0898 1.9336-1.0195 0.98438-1.6289 2.5156-1.1211 3.9102 0.71094 1.9414 2.6367 2.9336 4.4336 3.6719 0.09375 0.039062 0.18359 0.0625 0.28516 0.074219 1.4883 2.6641 2.043 5.6992 0.62109 8.6758-2.043 4.2969-7.375 5.0625-11.582 4.7617-2.0547-0.15234-2.043 3.0508 0 3.2031 5.6562 0.41406 11.355-1.1992 14.348-6.3438 1.3438-2.3203 1.5664-4.8203 1.0938-7.2422 5.4727 4.168 13.262 4.6914 19.516 0.98438 1.7773-1.0547 0.16797-3.8203-1.6133-2.7695z"/>
  <path d="m444.77 261.73c-10.309 6.8594-21.578 12.086-32.871 17.074-0.94531 0.41406-0.125 1.7969 0.80469 1.3828 11.305-4.9961 22.562-10.219 32.871-17.074 0.85938-0.57422 0.058593-1.957-0.80469-1.3828z"/>
  <path d="m448.44 265.27c-6.8164 6.793-13.855 13.512-22.035 18.66-0.86719 0.54688-0.066406 1.9336 0.8125 1.3828 8.293-5.2188 15.445-12.02 22.355-18.906 0.73828-0.73438-0.39844-1.8672-1.1328-1.1367z"/>
  <path d="m524.15 249.25c-7.1328 0.3125-14.254 1.0078-21.363 1.6172 0.35938-2.0312 0.58984-4.0664 0.64844-6.0742 5.4336-1.0312 10.848-2.1016 16.23-3.3594 1.0039-0.23438 0.57813-1.7734-0.42578-1.5391-5.2422 1.2266-10.512 2.2695-15.785 3.2773-0.042969-2.5156-0.37891-4.9961-1.0469-7.4102 5.0273-1.6758 10.109-3.2422 15.121-4.9961 0.97266-0.33594 0.55859-1.8828-0.42188-1.5391-5.0273 1.7578-10.125 3.332-15.164 5.0117-0.33203-0.98438-0.71875-1.9609-1.1719-2.918-0.074219-0.14062-0.15234-0.26172-0.24219-0.36328-3.3984-11.117-7.1836-22.113-12.176-32.641-4.6641-9.8516-11.637-22.508-23.121-25.355-1.0039-0.24609-2.0312 0.48047-2.0273 1.5469 0.050781 6.0586 0.875 12.73 0.085937 18.973-0.10547 0.22266-0.14453 0.46875-0.10547 0.76172-0.41016 2.7266-1.1406 5.3633-2.418 7.8281-4.3359 8.3555-19.824 9.582-28.379 12.051-8.4727-8.2812-17.629-15.863-24.672-25.48-0.70703-0.95703-2.0898-1.0977-2.7617 0-4.4453 7.2109-5.4766 15.637-4.5469 24.078-0.089844 0.24609-0.11719 0.51953-0.074219 0.82422 0.18359 1.0938 0.40234 2.1797 0.66797 3.2461 1.4453 8.0078 4.4531 15.859 7.7656 22.512 0.09375 0.18359 0.20703 0.33203 0.33203 0.44922 2.4883 7.4648 3.1211 14.926-2.0234 21.539-5.2188 0.53125-10.445 0.95312-15.688 1.2148-1.0312 0.050781-1.0352 1.6523 0 1.6016 4.7305-0.23437 9.4531-0.59766 14.152-1.0586-0.40234 0.42188-0.82422 0.83594-1.2812 1.2539-8.4219 7.5898-21.727 9.4805-32.508 11.121-0.24609 0.039062-0.45312 0.11719-0.61719 0.23047-22.637 2.0273-46.547-5.125-67.75 5.5703-24.035 12.129-45.824 28.379-69.816 40.609-11.352 3.0312-21.684 2.9805-31.152-4.8945-4.918-4.082-9.8516-9.3594-15.902-11.762-4.0898-1.6289-8.4062-1.0039-10.164 3.5273-2.8828 7.4219-0.51562 14.816 4.1094 20.922 10.59 13.961 29.91 20.848 46.891 19.941 23.879-1.2812 41.836-19.137 60.375-32.336-5.2031 13.082-8.7461 26.969-11.375 40.672-1.0938 5.7344-7.3125 30.871 4.6133 29.137 4.7891-0.69922 9.3516-6.3516 12.371-9.6211 6.2773-6.7812 11.816-14.246 17.535-21.5 1.0977-1.3945 2.2383-2.7422 3.4062-4.082 0.6875 12.266 8.0977 26.113 19.48 30.816 0.85156 0.35156 1.7031-0.375 1.9727-1.1133 3.9141-10.691 2.2734-22.371 5.125-33.297 0.050782-0.19141 0.0625-0.36328 0.050782-0.53125h63.645c-1.0234 8.8438-0.60938 17.84 1.0938 26.57 0.37109 1.8945 2.2695 11.082 6.3125 8.6758 3.4727-2.0703 4.2227-8.4844 5.1055-11.984 0.67578-2.6875 1.2812-5.3945 2.1211-8.0352 1.4727-4.6133 4.9844-8.418 7.918-12.348 0.59766 3.1992 1.3438 6.3828 2.1914 9.582 1.6523 6.2734 3.4609 16.992 9.1211 21.293 3.7969 2.8828 6.8164-0.3125 8.6133-3.7305 2.207-4.1992 2.9961-9.1094 4.1328-13.664 1.3828-5.5625 3.2422-10.992 5.2578-16.359 8.2383-21.934 21.066-41.855 31.977-62.484 4.9102-9.2773 11.594-21.027 14.078-32.723 7.2227-0.61719 14.438-1.3203 21.684-1.6406 1.0156-0.0625 1.0195-1.6602-0.003906-1.6133zm-57.637-70.887c7.0742 4.6758 14.234 13.145 15.262 21.527 0.29687 2.4531-0.65625 4.7305-2.25 6.5508-2.1328 2.4414-5.2539-0.63281-6.6914-2.082-2.8008-2.793-5-6.6914-6.3789-10.398 0.63281-5.1133 0.26953-10.488 0.058594-15.598zm-5.8047 31.832c-0.011719 0.066406-0.011719 0.12891-0.011719 0.19531-0.050781-0.0625-0.10156-0.11719-0.15234-0.17188 0.050781-0.007813 0.10938-0.019532 0.16406-0.023438zm-54.551-17.062c5.0078 10.035 21.094 19.02 18.121 31.152-1.3945 5.6914-8.6953 5.1367-12.707 3.1875-4.4453-2.1602-6.4219-6.8594-7.5078-11.496-1.3789-7.8555-1.1406-15.855 2.0938-22.844zm-72.93 185.76c-10.176-5.1914-16.262-19.371-15.805-30.234 0.003906-0.11719 0-0.22266-0.015625-0.33203 0.19141-0.21094 0.38672-0.42188 0.58203-0.63281h19.695c-2.5859 10.234-1.3477 21.125-4.457 31.199zm82.645-16.129c-1.2891 4.043-2.0547 8.25-3.2422 12.324-0.47656 1.6406-1.0195 3.2812-1.9102 4.75 0.3125-0.51563-2.1016-6.9453-2.3086-7.9805-1.5195-7.8125-1.6875-16.238-0.6875-24.16h17.535c-3.3555 4.9023-7.5547 9.3086-9.3867 15.066zm71.77-114.93c4.207-0.85547 8.4219-1.6523 12.645-2.4453-0.09375 1.8984-0.35156 3.8203-0.74609 5.7461-3.4609 0.28125-6.9258 0.52734-10.398 0.67578-1.0312 0.042968-1.043 1.6445 0 1.6016 3.3555-0.14453 6.7031-0.37891 10.047-0.64844-2.4531 10.383-8.3828 20.809-12.562 28.918-8.1992 15.898-17.523 31.188-25.441 47.234-3.5234 7.1328-6.6406 14.465-9.3398 21.945-3.0898 8.5625-3.9766 18.363-8.2148 26.426-3.9922 7.5898-9.918-13.203-10.625-15.676-3.207-11.16-5.3867-22.68-3.7969-34.293 0.28125-2.0156-2.8047-2.8906-3.0859-0.85156-0.83594 6.1094-0.71875 12.098 0.015625 18.039h-105.11c11.211-11.594 23.199-22.371 28.777-38.102 0.69531-1.9531-2.4023-2.7812-3.0859-0.85156-5.8867 16.586-19.117 26.57-30.504 39.02-0.58984 0.16406-0.94141 0.63281-1.0547 1.1641-0.26172 0.29688-0.53906 0.58984-0.80469 0.89062-9.5156 10.871-17.344 23.312-27.945 33.219-1.8203 1.7031-3.8867 3.3867-6.3164 4.0977-3.5742 1.0547-2.8164-7.7656-2.7422-9.3633 0.35938-7.7734 1.9023-15.508 3.5625-23.094 3.1875-14.629 7.5-29.52 14.09-43.004 0.90234-1.8477-1.8594-3.4727-2.7617-1.6172-0.82812 1.707-1.6172 3.4375-2.3867 5.1797-0.23047 0.023438-0.46094 0.10547-0.69922 0.26172-17.434 11.82-32.848 27.523-53.867 32.809-13.746 3.4609-28.156 0.375-39.996-6.9727-0.003906-0.054688-0.003906-0.11328-0.023437-0.16797-1.9922-8.0859 3.9219-11.52 10.836-13.402 0.40234-0.11328 0.6875-0.33203 0.875-0.59766 0.53125 0.26953 1.0703 0.52734 1.6367 0.75 7.75 3.1094 15.086 2.7109 22.785 0.92578 0.42969 0.25781 0.98437 0.33203 1.5508 0.042969 0.55859-0.28125 1.1133-0.58203 1.6758-0.86328 0.30859-0.085938 0.62109-0.16797 0.92969-0.25391 0.44922-0.125 0.74609-0.38672 0.92578-0.69922 22.23-11.375 43.406-25.273 64.902-37.93 10.152-5.9805 21.062-7.4766 32.207-7.5938-2.0117 6.8164-3.4219 21.117 6.1836 21.734 3.4141 0.21875 5.1953-3.9141 6.1992-6.457 1.7656-4.4297 2.2383-10.23 5.5508-13.859 0.25781-0.28125 0.38672-0.58984 0.42578-0.89453 5.2734 0.21875 10.551 0.36328 15.773 0.125-4.8945 11.105-8.3789 25.844-0.14453 36.098 8.4375 10.512 25.289 14.156 37.184 7.5039 4.0273-2.25 7.3789-7.7617 6.1992-12.48-1.3594-5.4219-6.3711-7.875-10.41-11.148-7.6992-6.2539 3.625-9.1094 4.3633-15.16 0.68359-5.6016-3.3594-9.3516-8.0586-11.418 4.2773-1.8828 8.2383-4.3516 11.562-7.6992 0.71875-0.71875 1.3594-1.457 1.9336-2.207 13.598-1.5117 27.105-3.7539 40.57-6.1445 1.0117-0.17969 0.58203-1.7266-0.42188-1.5391-12.945 2.2891-25.922 4.4531-38.977 5.9453 5.9766-9.8164 1.25-21.648-3.3828-31.773 0.57031 0.4375 1.1719 0.85547 1.8125 1.2383 4.0898 2.3867 10.539 2.8555 14.309-0.44141 6.5781-5.7617 4.0977-12.824-0.68359-19.672 2.4258 2.2852 4.8398 4.5625 7.2188 6.9062 0.003906 0.011719 0.015625 0.011719 0.023437 0.023438 0.34766 0.39062 0.875 0.59766 1.5352 0.39062 6.7148-2.1328 17.062-3.1758 24.289-7.1836 3.0703 4.9766 6.9375 8.1133 13.07 8.3984 7.5312 0.34766 14.578-3.8398 22.176-3.7188 2.4648 6.7305 4.582 13.59 6.6289 20.445-6.3008 2.1914-12.48 4.6602-18.324 7.9922-0.89453 0.50781-0.09375 1.8945 0.80469 1.3828 5.8398-3.3281 12.012-5.7773 18.289-7.957 0.050782 0.039062 0.11328 0.074218 0.16406 0.10156 0.58984 2.2227 0.86719 4.5117 0.86719 6.8438-4.3672 0.82422-8.7461 1.6445-13.109 2.5352-1.0039 0.23047-0.57813 1.7773 0.42969 1.5703z"/>
  <path d="m319.42 290.39c-5.6406 0.83594-12.129 5.3711-15.566 9.8008-4.418 5.6914-5.6445 15.059 3.5352 16.051 10.754 1.1641 17.281-11.77 18.156-20.523 0.015625-0.20312 0-0.37109-0.042969-0.53125 0.015625-3.1016-1.5195-5.4766-6.082-4.7969zm-12.43 22.617c0.039063-0.054688 0.089844-0.10547 0.11328-0.16406 0.24609 0.09375 0.50391 0.17188 0.76172 0.23438-0.30078-0.003906-0.58984-0.023437-0.875-0.070312z"/>
  <path d="m474.67 268.3c-2.2852 1.7578-4.8906 2.8008-7.7266 3.2539-2.0312 0.33203-1.1641 3.4102 0.84375 3.0898 3.0742-0.49219 6.0195-1.6797 8.4961-3.5781 1.6133-1.2383 0.023438-4.0195-1.6133-2.7656z"/>
  <use x="70" y="644" xlink:href="#v"/>
  <use x="90.550781" y="644" xlink:href="#b"/>
  <use x="104.359375" y="644" xlink:href="#d"/>
  <use x="123.347656" y="644" xlink:href="#c"/>
  <use x="142.242188" y="644" xlink:href="#e"/>
  <use x="155.628906" y="644" xlink:href="#d"/>
  <use x="174.617188" y="644" xlink:href="#l"/>
  <use x="204.410156" y="644" xlink:href="#k"/>
  <use x="224.453125" y="644" xlink:href="#f"/>
  <use x="252.453125" y="644" xlink:href="#j"/>
  <use x="275.433594" y="644" xlink:href="#c"/>
  <use x="294.328125" y="644" xlink:href="#u"/>
  <use x="314.371094" y="644" xlink:href="#c"/>
  <use x="333.265625" y="644" xlink:href="#i"/>
  <use x="359.679688" y="644" xlink:href="#t"/>
  <use x="381.351562" y="644" xlink:href="#b"/>
  <use x="395.15625" y="644" xlink:href="#f"/>
  <use x="413.410156" y="644" xlink:href="#a"/>
  <use x="442.394531" y="644" xlink:href="#h"/>
  <use x="462.914062" y="644" xlink:href="#b"/>
  <use x="476.726562" y="644" xlink:href="#c"/>
  <use x="495.617187" y="644" xlink:href="#i"/>
  <use x="512.285156" y="644" xlink:href="#a"/>
  <use x="531.523437" y="644" xlink:href="#g"/>
  <use x="541.117187" y="644" xlink:href="#a"/>
  <use x="70" y="672" xlink:href="#s"/>
  <use x="82.183594" y="672" xlink:href="#b"/>
  <use x="95.992188" y="672" xlink:href="#a"/>
  <use x="115.226562" y="672" xlink:href="#r"/>
  <use x="154.152344" y="672" xlink:href="#e"/>
  <use x="167.535156" y="672" xlink:href="#q"/>
  <use x="187.46875" y="672" xlink:href="#d"/>
  <use x="216.207031" y="672" xlink:href="#p"/>
  <use x="239.640625" y="672" xlink:href="#a"/>
  <use x="258.878906" y="672" xlink:href="#o"/>
  <use x="278.8125" y="672" xlink:href="#n"/>
  <use x="308.492188" y="672" xlink:href="#h"/>
  <use x="329.015625" y="672" xlink:href="#b"/>
  <use x="342.820312" y="672" xlink:href="#a"/>
  <use x="362.058594" y="672" xlink:href="#g"/>
  <use x="371.65625" y="672" xlink:href="#d"/>
  <use x="390.648438" y="672" xlink:href="#m"/>
  <use x="407.242188" y="672" xlink:href="#e"/>
 </g>
</svg>
