<?xml version="1.0" encoding="UTF-8"?>
<svg width="700pt" height="700pt" version="1.1" viewBox="0 0 700 700" xmlns="http://www.w3.org/2000/svg" xmlns:xlink="http://www.w3.org/1999/xlink">
 <defs>
  <symbol id="v" overflow="visible">
   <path d="m18.766-1.125c-0.96875 0.5-1.9805 0.875-3.0312 1.125-1.043 0.25781-2.1367 0.39062-3.2812 0.39062-3.3984 0-6.0898-0.94531-8.0781-2.8438-1.9922-1.9062-2.9844-4.4844-2.9844-7.7344 0-3.2578 0.99219-5.8359 2.9844-7.7344 1.9883-1.9062 4.6797-2.8594 8.0781-2.8594 1.1445 0 2.2383 0.13281 3.2812 0.39062 1.0508 0.25 2.0625 0.625 3.0312 1.125v4.2188c-0.98047-0.65625-1.9453-1.1406-2.8906-1.4531-0.94922-0.3125-1.9492-0.46875-3-0.46875-1.875 0-3.3516 0.60547-4.4219 1.8125-1.0742 1.1992-1.6094 2.8555-1.6094 4.9688 0 2.1055 0.53516 3.7617 1.6094 4.9688 1.0703 1.1992 2.5469 1.7969 4.4219 1.7969 1.0508 0 2.0508-0.14844 3-0.45312 0.94531-0.3125 1.9102-0.80078 2.8906-1.4688z"/>
  </symbol>
  <symbol id="b" overflow="visible">
   <path d="m13.734-11.141c-0.4375-0.19531-0.87109-0.34375-1.2969-0.4375-0.41797-0.10156-0.83984-0.15625-1.2656-0.15625-1.2617 0-2.2305 0.40625-2.9062 1.2188-0.67969 0.80469-1.0156 1.9531-1.0156 3.4531v7.0625h-4.8906v-15.312h4.8906v2.5156c0.625-1 1.3438-1.7266 2.1562-2.1875 0.82031-0.46875 1.8008-0.70312 2.9375-0.70312 0.16406 0 0.34375 0.011719 0.53125 0.03125 0.19531 0.011719 0.47656 0.039062 0.84375 0.078125z"/>
  </symbol>
  <symbol id="d" overflow="visible">
   <path d="m17.641-7.7031v1.4062h-11.453c0.125 1.1484 0.53906 2.0078 1.25 2.5781 0.70703 0.57422 1.7031 0.85938 2.9844 0.85938 1.0312 0 2.082-0.14844 3.1562-0.45312 1.082-0.3125 2.1914-0.77344 3.3281-1.3906v3.7656c-1.1562 0.4375-2.3125 0.76562-3.4688 0.98438-1.1562 0.22656-2.3125 0.34375-3.4688 0.34375-2.7734 0-4.9297-0.70312-6.4688-2.1094-1.5312-1.4062-2.2969-3.3789-2.2969-5.9219 0-2.5 0.75391-4.4609 2.2656-5.8906 1.5078-1.4375 3.582-2.1562 6.2188-2.1562 2.4062 0 4.332 0.73047 5.7812 2.1875 1.4453 1.4492 2.1719 3.3828 2.1719 5.7969zm-5.0312-1.625c0-0.92578-0.27344-1.6719-0.8125-2.2344-0.54297-0.57031-1.25-0.85938-2.125-0.85938-0.94922 0-1.7188 0.26562-2.3125 0.79688s-0.96484 1.2969-1.1094 2.2969z"/>
  </symbol>
  <symbol id="c" overflow="visible">
   <path d="m9.2188-6.8906c-1.0234 0-1.793 0.17188-2.3125 0.51562-0.51172 0.34375-0.76562 0.85547-0.76562 1.5312 0 0.625 0.20703 1.1172 0.625 1.4688 0.41406 0.34375 0.98828 0.51562 1.7188 0.51562 0.92578 0 1.7031-0.32812 2.3281-0.98438 0.63281-0.66406 0.95312-1.4922 0.95312-2.4844v-0.5625zm7.4688-1.8438v8.7344h-4.9219v-2.2656c-0.65625 0.92969-1.3984 1.6055-2.2188 2.0312-0.82422 0.41406-1.8242 0.625-3 0.625-1.5859 0-2.8711-0.45703-3.8594-1.375-0.99219-0.92578-1.4844-2.1289-1.4844-3.6094 0-1.7891 0.61328-3.1016 1.8438-3.9375 1.2383-0.84375 3.1797-1.2656 5.8281-1.2656h2.8906v-0.39062c0-0.76953-0.30859-1.332-0.92188-1.6875-0.61719-0.36328-1.5703-0.54688-2.8594-0.54688-1.0547 0-2.0312 0.10547-2.9375 0.3125-0.89844 0.21094-1.7305 0.52344-2.5 0.9375v-3.7344c1.0391-0.25 2.0859-0.44141 3.1406-0.57812 1.0625-0.13281 2.125-0.20312 3.1875-0.20312 2.7578 0 4.75 0.54688 5.9688 1.6406 1.2266 1.0859 1.8438 2.8555 1.8438 5.3125z"/>
  </symbol>
  <symbol id="e" overflow="visible">
   <path d="m7.7031-19.656v4.3438h5.0469v3.5h-5.0469v6.5c0 0.71094 0.14062 1.1875 0.42188 1.4375s0.83594 0.375 1.6719 0.375h2.5156v3.5h-4.1875c-1.9375 0-3.3125-0.39844-4.125-1.2031-0.80469-0.8125-1.2031-2.1797-1.2031-4.1094v-6.5h-2.4219v-3.5h2.4219v-4.3438z"/>
  </symbol>
  <symbol id="l" overflow="visible">
   <path d="m12.766-13.078v-8.2031h4.9219v21.281h-4.9219v-2.2188c-0.66797 0.90625-1.4062 1.5703-2.2188 1.9844s-1.7578 0.625-2.8281 0.625c-1.8867 0-3.4336-0.75-4.6406-2.25-1.2109-1.5-1.8125-3.4258-1.8125-5.7812 0-2.3633 0.60156-4.2969 1.8125-5.7969 1.207-1.5 2.7539-2.25 4.6406-2.25 1.0625 0 2 0.21484 2.8125 0.64062 0.82031 0.42969 1.5664 1.0859 2.2344 1.9688zm-3.2188 9.9219c1.0391 0 1.8359-0.37891 2.3906-1.1406 0.55078-0.76953 0.82812-1.8828 0.82812-3.3438 0-1.457-0.27734-2.5664-0.82812-3.3281-0.55469-0.76953-1.3516-1.1562-2.3906-1.1562-1.043 0-1.8398 0.38672-2.3906 1.1562-0.55469 0.76172-0.82812 1.8711-0.82812 3.3281 0 1.4609 0.27344 2.5742 0.82812 3.3438 0.55078 0.76172 1.3477 1.1406 2.3906 1.1406z"/>
  </symbol>
  <symbol id="k" overflow="visible">
   <path d="m10.5-3.1562c1.0508 0 1.8516-0.37891 2.4062-1.1406 0.55078-0.76953 0.82812-1.8828 0.82812-3.3438 0-1.457-0.27734-2.5664-0.82812-3.3281-0.55469-0.76953-1.3555-1.1562-2.4062-1.1562-1.0547 0-1.8594 0.38672-2.4219 1.1562-0.55469 0.77344-0.82812 1.8828-0.82812 3.3281 0 1.4492 0.27344 2.5586 0.82812 3.3281 0.5625 0.77344 1.3672 1.1562 2.4219 1.1562zm-3.25-9.9219c0.67578-0.88281 1.4219-1.5391 2.2344-1.9688 0.82031-0.42578 1.7656-0.64062 2.8281-0.64062 1.8945 0 3.4453 0.75 4.6562 2.25 1.207 1.5 1.8125 3.4336 1.8125 5.7969 0 2.3555-0.60547 4.2812-1.8125 5.7812-1.2109 1.5-2.7617 2.25-4.6562 2.25-1.0625 0-2.0078-0.21094-2.8281-0.625-0.8125-0.42578-1.5586-1.0859-2.2344-1.9844v2.2188h-4.8906v-21.281h4.8906z"/>
  </symbol>
  <symbol id="f" overflow="visible">
   <path d="m0.34375-15.312h4.8906l4.125 10.391 3.5-10.391h4.8906l-6.4375 16.766c-0.64844 1.6953-1.4023 2.8828-2.2656 3.5625-0.86719 0.6875-2 1.0312-3.4062 1.0312h-2.8438v-3.2188h1.5312c0.83203 0 1.4375-0.13672 1.8125-0.40625 0.38281-0.26172 0.67969-0.73047 0.89062-1.4062l0.14062-0.42188z"/>
  </symbol>
  <symbol id="j" overflow="visible">
   <path d="m20.922-1.5156c-1.3125 0.63672-2.6797 1.1172-4.0938 1.4375-1.4062 0.3125-2.8672 0.46875-4.375 0.46875-3.3984 0-6.0898-0.94531-8.0781-2.8438-1.9922-1.9062-2.9844-4.4844-2.9844-7.7344 0-3.2891 1.0078-5.8789 3.0312-7.7656 2.0312-1.8828 4.8047-2.8281 8.3281-2.8281 1.3516 0 2.6484 0.13281 3.8906 0.39062 1.25 0.25 2.4258 0.625 3.5312 1.125v4.2188c-1.1484-0.64453-2.2812-1.125-3.4062-1.4375-1.125-0.32031-2.25-0.48438-3.375-0.48438-2.1055 0-3.7266 0.58984-4.8594 1.7656-1.125 1.168-1.6875 2.8398-1.6875 5.0156 0 2.1562 0.54688 3.8242 1.6406 5 1.0938 1.1797 2.6445 1.7656 4.6562 1.7656 0.53906 0 1.0469-0.03125 1.5156-0.09375 0.47656-0.070313 0.89844-0.17969 1.2656-0.32812v-3.9688h-3.2031v-3.5156h8.2031z"/>
  </symbol>
  <symbol id="u" overflow="visible">
   <path d="m12.766-2.5938c-0.66797 0.88672-1.4062 1.543-2.2188 1.9688-0.8125 0.41797-1.7578 0.625-2.8281 0.625-1.8672 0-3.4062-0.73438-4.625-2.2031-1.2188-1.4766-1.8281-3.3516-1.8281-5.625 0-2.2891 0.60938-4.1641 1.8281-5.625 1.2188-1.4688 2.7578-2.2031 4.625-2.2031 1.0703 0 2.0156 0.21484 2.8281 0.64062 0.8125 0.41797 1.5508 1.0742 2.2188 1.9688v-2.2656h4.9219v13.766c0 2.457-0.77734 4.3359-2.3281 5.6406-1.5547 1.3008-3.8086 1.9531-6.7656 1.9531-0.94922 0-1.8711-0.074219-2.7656-0.21875-0.89844-0.14844-1.7969-0.37109-2.7031-0.67188v-3.8125c0.86328 0.48828 1.7031 0.85156 2.5156 1.0938 0.82031 0.23828 1.6484 0.35938 2.4844 0.35938 1.6016 0 2.7734-0.35156 3.5156-1.0469 0.75-0.69922 1.125-1.7969 1.125-3.2969zm-3.2188-9.5312c-1.0117 0-1.8047 0.375-2.375 1.125-0.5625 0.74219-0.84375 1.7969-0.84375 3.1719 0 1.3984 0.26953 2.4609 0.8125 3.1875 0.55078 0.71875 1.3516 1.0781 2.4062 1.0781 1.0195 0 1.8125-0.36719 2.375-1.1094 0.5625-0.75 0.84375-1.8008 0.84375-3.1562 0-1.375-0.28125-2.4297-0.84375-3.1719-0.5625-0.75-1.3555-1.125-2.375-1.125z"/>
  </symbol>
  <symbol id="i" overflow="visible">
   <path d="m14.312-14.828v3.7188c-1.043-0.4375-2.0547-0.76562-3.0312-0.98438-0.98047-0.21875-1.9023-0.32812-2.7656-0.32812-0.92969 0-1.6211 0.11719-2.0781 0.34375-0.44922 0.23047-0.67188 0.58984-0.67188 1.0781 0 0.38672 0.17188 0.68359 0.51562 0.89062 0.34375 0.21094 0.95703 0.36719 1.8438 0.46875l0.85938 0.125c2.5078 0.32422 4.1953 0.85156 5.0625 1.5781 0.86328 0.73047 1.2969 1.8711 1.2969 3.4219 0 1.6367-0.60547 2.8672-1.8125 3.6875-1.1992 0.8125-2.9922 1.2188-5.375 1.2188-1.0234 0-2.0742-0.078125-3.1562-0.23438-1.0742-0.15625-2.1797-0.39453-3.3125-0.71875v-3.7188c0.96875 0.48047 1.9609 0.83984 2.9844 1.0781 1.0312 0.23047 2.0781 0.34375 3.1406 0.34375 0.95703 0 1.6758-0.12891 2.1562-0.39062 0.47656-0.26953 0.71875-0.66406 0.71875-1.1875 0-0.4375-0.16797-0.75781-0.5-0.96875-0.33594-0.21875-0.99609-0.38281-1.9844-0.5l-0.85938-0.10938c-2.1797-0.26953-3.7031-0.77344-4.5781-1.5156-0.875-0.73828-1.3125-1.8594-1.3125-3.3594 0-1.625 0.55078-2.8281 1.6562-3.6094 1.1133-0.78906 2.8203-1.1875 5.125-1.1875 0.89453 0 1.8359 0.074219 2.8281 0.21875 1 0.13672 2.082 0.35156 3.25 0.64062z"/>
  </symbol>
  <symbol id="t" overflow="visible">
   <path d="m14.953-3.7188h-8.2188l-1.3125 3.7188h-5.2812l7.5625-20.406h6.2656l7.5625 20.406h-5.2812zm-6.9062-3.7812h5.5781l-2.7812-8.125z"/>
  </symbol>
  <symbol id="a" overflow="visible">
   <path d="m9.6406-12.188c-1.0859 0-1.9141 0.39062-2.4844 1.1719-0.57422 0.78125-0.85938 1.9062-0.85938 3.375s0.28516 2.5938 0.85938 3.375c0.57031 0.77344 1.3984 1.1562 2.4844 1.1562 1.0625 0 1.875-0.38281 2.4375-1.1562 0.57031-0.78125 0.85938-1.9062 0.85938-3.375s-0.28906-2.5938-0.85938-3.375c-0.5625-0.78125-1.375-1.1719-2.4375-1.1719zm0-3.5c2.6328 0 4.6914 0.71484 6.1719 2.1406 1.4766 1.418 2.2188 3.3867 2.2188 5.9062 0 2.5117-0.74219 4.4805-2.2188 5.9062-1.4805 1.418-3.5391 2.125-6.1719 2.125-2.6484 0-4.7148-0.70703-6.2031-2.125-1.4922-1.4258-2.2344-3.3945-2.2344-5.9062 0-2.5195 0.74219-4.4883 2.2344-5.9062 1.4883-1.4258 3.5547-2.1406 6.2031-2.1406z"/>
  </symbol>
  <symbol id="h" overflow="visible">
   <path d="m2.5781-20.406h8.7344c2.5938 0 4.582 0.57812 5.9688 1.7344 1.3945 1.1484 2.0938 2.7891 2.0938 4.9219 0 2.1367-0.69922 3.7812-2.0938 4.9375-1.3867 1.1562-3.375 1.7344-5.9688 1.7344h-3.4844v7.0781h-5.25zm5.25 3.8125v5.7031h2.9219c1.0195 0 1.8047-0.25 2.3594-0.75 0.5625-0.5 0.84375-1.2031 0.84375-2.1094 0-0.91406-0.28125-1.6172-0.84375-2.1094-0.55469-0.48828-1.3398-0.73438-2.3594-0.73438z"/>
  </symbol>
  <symbol id="g" overflow="visible">
   <path d="m2.3594-15.312h4.8906v15.031c0 2.0508-0.49609 3.6172-1.4844 4.7031-0.98047 1.082-2.4062 1.625-4.2812 1.625h-2.4219v-3.2188h0.85938c0.92578 0 1.5625-0.21094 1.9062-0.625 0.35156-0.41797 0.53125-1.2461 0.53125-2.4844zm0-5.9688h4.8906v4h-4.8906z"/>
  </symbol>
  <symbol id="s" overflow="visible">
   <path d="m12.422-21.281v3.2188h-2.7031c-0.6875 0-1.1719 0.125-1.4531 0.375-0.27344 0.25-0.40625 0.6875-0.40625 1.3125v1.0625h4.1875v3.5h-4.1875v11.812h-4.8906v-11.812h-2.4375v-3.5h2.4375v-1.0625c0-1.6641 0.46094-2.8984 1.3906-3.7031 0.92578-0.80078 2.3672-1.2031 4.3281-1.2031z"/>
  </symbol>
  <symbol id="r" overflow="visible">
   <path d="m16.547-12.766c0.61328-0.94531 1.3477-1.6719 2.2031-2.1719 0.85156-0.5 1.7891-0.75 2.8125-0.75 1.7578 0 3.0977 0.54688 4.0156 1.6406 0.92578 1.0859 1.3906 2.6562 1.3906 4.7188v9.3281h-4.9219v-7.9844-0.35938c0.007813-0.13281 0.015625-0.32031 0.015625-0.5625 0-1.082-0.16406-1.8633-0.48438-2.3438-0.3125-0.48828-0.82422-0.73438-1.5312-0.73438-0.92969 0-1.6484 0.38672-2.1562 1.1562-0.51172 0.76172-0.77344 1.8672-0.78125 3.3125v7.5156h-4.9219v-7.9844c0-1.6953-0.14844-2.7852-0.4375-3.2656-0.29297-0.48828-0.8125-0.73438-1.5625-0.73438-0.9375 0-1.6641 0.38672-2.1719 1.1562-0.51172 0.76172-0.76562 1.8594-0.76562 3.2969v7.5312h-4.9219v-15.312h4.9219v2.2344c0.60156-0.86328 1.2891-1.5156 2.0625-1.9531 0.78125-0.4375 1.6406-0.65625 2.5781-0.65625 1.0625 0 2 0.25781 2.8125 0.76562 0.8125 0.51172 1.4258 1.2305 1.8438 2.1562z"/>
  </symbol>
  <symbol id="q" overflow="visible">
   <path d="m17.75-9.3281v9.3281h-4.9219v-7.1094c0-1.3438-0.03125-2.2656-0.09375-2.7656s-0.16797-0.86719-0.3125-1.1094c-0.1875-0.3125-0.44922-0.55469-0.78125-0.73438-0.32422-0.17578-0.69531-0.26562-1.1094-0.26562-1.0234 0-1.8242 0.39844-2.4062 1.1875-0.58594 0.78125-0.875 1.8711-0.875 3.2656v7.5312h-4.8906v-21.281h4.8906v8.2031c0.73828-0.88281 1.5195-1.5391 2.3438-1.9688 0.83203-0.42578 1.75-0.64062 2.75-0.64062 1.7695 0 3.1133 0.54688 4.0312 1.6406 0.91406 1.0859 1.375 2.6562 1.375 4.7188z"/>
  </symbol>
  <symbol id="p" overflow="visible">
   <path d="m2.5781-20.406h5.875l7.4219 14v-14h4.9844v20.406h-5.875l-7.4219-14v14h-4.9844z"/>
  </symbol>
  <symbol id="o" overflow="visible">
   <path d="m2.1875-5.9688v-9.3438h4.9219v1.5312c0 0.83594-0.007813 1.875-0.015625 3.125-0.011719 1.25-0.015625 2.0859-0.015625 2.5 0 1.2422 0.03125 2.1328 0.09375 2.6719 0.070313 0.54297 0.17969 0.93359 0.32812 1.1719 0.20703 0.32422 0.47266 0.57422 0.79688 0.75 0.32031 0.16797 0.69141 0.25 1.1094 0.25 1.0195 0 1.8203-0.39062 2.4062-1.1719 0.58203-0.78125 0.875-1.8672 0.875-3.2656v-7.5625h4.8906v15.312h-4.8906v-2.2188c-0.74219 0.89844-1.5234 1.5586-2.3438 1.9844-0.82422 0.41406-1.7344 0.625-2.7344 0.625-1.7617 0-3.1055-0.53906-4.0312-1.625-0.92969-1.082-1.3906-2.6602-1.3906-4.7344z"/>
  </symbol>
  <symbol id="n" overflow="visible">
   <path d="m17.75-9.3281v9.3281h-4.9219v-7.1406c0-1.3203-0.03125-2.2344-0.09375-2.7344s-0.16797-0.86719-0.3125-1.1094c-0.1875-0.3125-0.44922-0.55469-0.78125-0.73438-0.32422-0.17578-0.69531-0.26562-1.1094-0.26562-1.0234 0-1.8242 0.39844-2.4062 1.1875-0.58594 0.78125-0.875 1.8711-0.875 3.2656v7.5312h-4.8906v-15.312h4.8906v2.2344c0.73828-0.88281 1.5195-1.5391 2.3438-1.9688 0.83203-0.42578 1.75-0.64062 2.75-0.64062 1.7695 0 3.1133 0.54688 4.0312 1.6406 0.91406 1.0859 1.375 2.6562 1.375 4.7188z"/>
  </symbol>
  <symbol id="m" overflow="visible">
   <path d="m14.719-14.828v3.9844c-0.65625-0.45703-1.3242-0.79688-2-1.0156-0.66797-0.21875-1.3594-0.32812-2.0781-0.32812-1.3672 0-2.4336 0.40234-3.2031 1.2031-0.76172 0.79297-1.1406 1.9062-1.1406 3.3438 0 1.4297 0.37891 2.543 1.1406 3.3438 0.76953 0.79297 1.8359 1.1875 3.2031 1.1875 0.75781 0 1.4844-0.10938 2.1719-0.32812 0.6875-0.22656 1.3203-0.56641 1.9062-1.0156v4c-0.76172 0.28125-1.5391 0.48828-2.3281 0.625-0.78125 0.14453-1.5742 0.21875-2.375 0.21875-2.7617 0-4.9219-0.70703-6.4844-2.125-1.5547-1.4141-2.3281-3.3828-2.3281-5.9062 0-2.5312 0.77344-4.5039 2.3281-5.9219 1.5625-1.4141 3.7227-2.125 6.4844-2.125 0.80078 0 1.5938 0.074219 2.375 0.21875 0.78125 0.13672 1.5547 0.35156 2.3281 0.64062z"/>
  </symbol>
 </defs>
 <g>
  <path d="m324.62 226.35c-1.1641 1.7148 1.6055 3.3086 2.7617 1.6133 8.8633-13.047 23.754-4.1758 32.066 4.5938 1.4219 1.5078 3.6836-0.76563 2.2617-2.2617-10.008-10.582-27-18.797-37.09-3.9453z"/>
  <path d="m408.97 224.02c1.5781 1.293 3.8594-0.95703 2.2578-2.2617-11.809-9.6484-27.445-0.75-35.387 9.7148-1.25 1.6406 1.5352 3.2383 2.7656 1.6172 6.5469-8.625 20.348-17.246 30.363-9.0703z"/>
  <path d="m371.25 267.02c-1.5391 0.35156-3.1523 0.35156-4.6992 0-2.0117-0.46094-2.8672 2.625-0.85156 3.0898 2.1172 0.48828 4.2891 0.48828 6.4023 0 2.0078-0.46875 1.1562-3.5508-0.85156-3.0898z"/>
  <path d="m296.45 361.51c4.7891 6.2344 11.246-0.078124 13.418-5.2344 2.4531-5.7969 3.6172-15.41-1.7188-20.027-2.6641-2.3086-6.5312-1.8203-9.5586-0.65625-4.5469 1.7461-6.7383 6.4844-6.6289 11.09 0.003907 0.41016 0.14062 0.73437 0.34766 0.98437-0.019532 4.9805 1.3984 10.27 4.1406 13.844zm12.172-16.711c-0.29688-1.7852-0.79688-3.457-1.4961-4.8281 0.375 0.57812 0.67578 1.2227 0.90625 1.8984 0.30859 0.92969 0.48047 1.9219 0.58984 2.9297z"/>
  <path d="m439.55 243.43c-6.5195 0.15625-13.035 0.10156-19.551-0.10156 2.543-6.9062 3.8398-14.352 3.8516-21.734 0.042969-23.543-10.691-46.52-21.336-66.965-0.54688-1.0469-2.2188-1.043-2.7656 0-6.1094 11.602-7.9844 24.852-14.32 36.344h-33.645c-4.9766-11.473-11.977-21.828-18.43-32.504-0.59375-0.99219-2.1953-1.0938-2.7656 0-4.7148 9.0703-7.043 19.363-10.344 29.02-3.2773 9.5859-5.9141 19.387-7.3398 29.422-1.1406 8.0312-1.1484 16.121 0.37891 23.777-2.8828 0.054687-5.7578 0.10547-8.6406 0.17188-1.0312 0.027343-1.0312 1.6289 0 1.6055 2.9961-0.085938 5.9922-0.12891 8.9883-0.18359 0.55469 2.418 1.2539 4.7812 2.1445 7.0898-2.9961 0.19531-5.9922 0.35937-8.9922 0.46094-1.0312 0.035156-1.0352 1.6289 0 1.5977 3.2188-0.10156 6.4414-0.28516 9.6602-0.5 0.59375 1.3984 1.2422 2.7812 1.9805 4.1289-0.16797 0.17187-0.30078 0.40234-0.375 0.6875-0.26953 1.0547-0.61719 2.0547-1.0234 3.0391-2.7656 0.59766-5.5312 1.1914-8.3164 1.7422-1.0117 0.19531-0.58203 1.7461 0.42578 1.5391 2.3633-0.46094 4.7109-0.97266 7.0664-1.4766-5.5273 10.809-18.895 18.016-27.52 25.586-10.129 8.8945-20.758 19.141-25.723 31.992-9.6953 25.133 3.2305 53.059 22.742 69.547 18.652 15.766 44.387 21.656 68.145 16.742 11.129-2.2969 21.582-7.4414 30.492-14.43 4.375-3.4258 19.191-14.582 13.898-21.965-3.4727-4.8477-9.7148-3.8867-15.656-1.6133 6.3516-30.84 4.7148-62.434 8.4688-93.57 9.0664-3.0312 16.289-8.7188 21.621-15.902 5.5117 1.1367 11.043 2.2383 16.633 2.9844 1.0234 0.12891 1.0117-1.4688 0-1.6055-5.2539-0.6875-10.445-1.707-15.629-2.7734 0.84375-1.2305 1.6445-2.4961 2.3906-3.8008 5.3867 0.64453 10.797 1.1367 16.223 1.3438 1.0352 0.042968 1.0312-1.5508 0-1.5977-5.1562-0.20703-10.289-0.65625-15.398-1.2617 0.91797-1.7422 1.7461-3.5352 2.4922-5.3828 6.7148 0.21875 13.434 0.28516 20.164 0.12891 1.0352-0.003906 1.0352-1.6055 0.003907-1.582zm-23.445-48.809c-16.723 9.8555-22.137-13.883-18.547-25.945 0.074219-0.26172 0.089844-0.50391 0.050781-0.71875 1.0586-3.0352 2.207-6.043 3.5625-8.9648 5.8555 11.449 11.27 23.293 14.934 35.629zm-83.961-32.004c5.7109 9.3008 11.664 18.473 16.18 28.426-8.3438 6.6602-17.488 12.051-27.172 4.2461-0.011719-0.011718-0.023438-0.011718-0.039062-0.023437 0.71094-2.3203 1.457-4.625 2.2227-6.9219 2.8438-8.4805 5.0312-17.566 8.8086-25.727zm8.332 86.059c0.53125 1.457 1.2148 2.8633 2.0312 4.1875-6.2891 1.5664-12.594 3.0703-18.918 4.4961-1.4844-2.1406-2.7344-4.3633-3.7812-6.6602 6.9102-0.53125 13.789-1.25 20.668-2.0234zm-51.32 137.75c-14.867-11.562-25.547-30.043-26.098-48.703 3.1602 1.0117 6.2148 2.2109 9.6094 2.3789 2.8906 0.14062 6.7188-1.6523 6.6797-5.0117-0.085937-7.1328-9.5977-10.238-13.383-15.41 0.77734-2.1094 1.7148-4.1992 2.832-6.2422 3.9688-7.2422 9.6602-13.68 15.859-19.488-0.17969 9.9961-0.80078 22.012 6.7266 29.367-1.9141 1.3086-3.707 2.7773-5.3711 4.3164-1.5195 1.4062 0.75781 3.6641 2.2617 2.2578 12.578-11.625 29.309-11.43 38.199 4.2461 9.5664 16.863-0.12891 36.773-15.074 46.406-5.8125-2.7383-11.047-6.7656-15.438-11.934-1.3398-1.5742-3.5938 0.69922-2.2617 2.2695 9.625 11.316 22.59 16.969 37.391 16.961 14.117 0 26.273-5.9414 38.664-11.637 2.9023 4.7148 5.3203 9.9414 9.082 14.035-5.2422 3.5352-10.938 6.4219-16.727 8.5586-24.41 8.9766-52.645 3.4336-72.953-12.371zm100.45-116.42c-0.039062 0.011719-0.066406 0.035156-0.10547 0.042969-0.70703 0.11328-1.3906 0.60938-1.5078 1.5-4.0078 31.953-2.0234 64.43-8.9023 96.059-0.027344 0.11719-0.042968 0.24219-0.042968 0.34766-2.9805 1.3789-5.7188 2.8633-7.7617 3.8125-0.28125 0.12891-0.46875 0.30859-0.60547 0.50391-3.1406 1.418-6.2344 2.8516-9.3359 4.2188 0.16797-12.383 1.2656-24.707 2.1055-37.062 0.14062-2.0625-3.0625-2.0508-3.1992 0-0.87891 12.812-2.0312 25.602-2.1289 38.457-3.3477 1.4219-6.7266 2.7148-10.188 3.7969-1.5742-15.289-5.3594-30.223-10.152-44.812-0.64453-1.9531-3.7344-1.1133-3.0859 0.85156 4.793 14.582 8.6523 29.539 10.141 44.855-3.8398 1.0234-7.8008 1.7461-11.988 2.0039-6.3125 0.38672-12.359-0.50781-17.949-2.5664 15.824-11.266 23.559-31.289 14.34-49.508-1.5117-2.9727-3.5625-5.6289-5.9961-7.8398 4.2852-8.707-2.5156-13.312-8.6367-19.18-5.7578-5.5156-1.0352-10.152 0.81641-16.199 1.7461-5.6797-1.9648-11.906-5.6328-16.066 4.3242-3.8906 8.1211-8.2617 10.254-13.418 0.39062-0.089843 0.79688-0.17188 1.1875-0.26172 1.5625 2.2109 3.3164 4.3281 5.3359 6.3125 1.4727 1.457 3.7344-0.8125 2.2617-2.2578-1.5664-1.5391-2.9688-3.1523-4.2266-4.8203 6.293-1.4297 12.57-2.918 18.84-4.4805 3.3203 4.6602 8.2812 8.1797 13.91 9.3203 5.875 1.1914 9.5273-1.8086 11.273-6.1992 1.6445 2.9609 4.5742 4.8984 9.0234 4.957 6.3398 0.089844 12.695-3.8125 16.676-8.793 5.0195 0.71875 9.9844 1.707 14.957 2.7227-4.9141 6.1992-11.453 11.09-19.676 13.703zm-19.207-24.129c0.039062 0.035156 0.085938 0.078125 0.11719 0.10547 0.015624 0.027343 0.027343 0.050781 0.039062 0.078125s0.023438 0.050781 0.027344 0.078125v0.050781c0 0.023438-0.003906 0.042969-0.003906 0.074219-0.023438 0.125-0.054688 0.25391-0.10156 0.375 0 0.003906-0.003906 0.011719-0.003906 0.023437-0.027344 0.054688-0.050781 0.11328-0.085938 0.15625-0.027343 0.0625-0.074219 0.11719-0.10547 0.17969v-0.19531-0.98438c0.039063 0.011719 0.078126 0.035156 0.11719 0.058594zm-3.3203 0.28516c0.003906 0.015625 0.003906 0.039063 0.003906 0.066406-0.035156 0.042969-0.066406 0.089844-0.09375 0.14063 0.003906-0.035157 0.023437-0.066407 0.027344-0.10156 0.023437-0.035156 0.046874-0.074219 0.0625-0.10547zm43.27 8.75c-4.9688-1.0312-9.9336-2.0312-14.945-2.7891 0.24609-0.35938 0.48047-0.73438 0.70703-1.1016 0.60937-1.043-0.066407-2.0117-0.94531-2.2969 5.8359 0.95312 11.68 1.8711 17.543 2.6445-0.73828 1.2148-1.5234 2.3906-2.3594 3.543zm3.2148-5.043c-7.5078-0.97266-14.992-2.2109-22.473-3.4219-1.0078-0.16406-1.4375 1.3789-0.42578 1.5391 1.3203 0.21875 2.6445 0.42969 3.9609 0.64453-0.48828 0.003906-0.96484 0.23047-1.2812 0.76562-0.46094 0.76562-1.0078 1.5117-1.625 2.2188-1.6953-0.20703-3.3945-0.37891-5.1055-0.50391-1.0352-0.078125-1.0234 1.5234 0 1.5977 1.25 0.10156 2.4883 0.21875 3.7227 0.34766-6.8047 6.4453-19.02 9.3281-20.047-1.332 1.4102-1.2031 2.918-2.7109 3.3711-4.5742 0.37891-1.5898-0.23438-2.9922-1.5117-3.9492-2.0117-1.5-5.4336-1.0859-7.207 0.56641-2.625 2.4414-0.30859 5.9805 1.6875 7.9297-0.63281 13.004-12.824 9.1445-19.531 1.6641 2.5742-0.64453 5.1523-1.2891 7.7188-1.9531 1.0039-0.25781 0.57812-1.7969-0.42188-1.5469-2.8125 0.72266-5.6172 1.4336-8.4219 2.1445-0.90625-1.1914-1.6641-2.4297-2.2109-3.6953 3.3281-0.37891 6.6523-0.76562 9.9844-1.1367 1.0195-0.11719 1.0312-1.7188 0-1.6016-3.543 0.39844-7.0938 0.8125-10.633 1.2109-0.75-1.0586-2.4922-0.75-2.8711 0.33203-7.0234 0.78906-14.043 1.5195-21.09 2.043-0.91797-2.2383-1.6445-4.5586-2.2109-6.9219 11.84-0.16406 23.684-0.17969 35.527-0.17969 1.0352 0 1.0352-1.6016 0-1.6016-11.961 0-23.918 0.011719-35.887 0.19141-1.8633-9.0508-1.3984-18.742 0.27344-28.242 0.81641-4.6797 1.9766-9.3086 3.293-13.887 10.426 7.4688 20.203 2.8008 29.625-4.5469 0.34766 0.29297 0.78516 0.33594 1.1992 0.20703 0.078125 0.011719 0.14062 0.023438 0.21875 0.023438h22.539c-2.5078 25.742 35.758 9.8516 46.082 25.25 0.21094 0.32031 0.49219 0.52734 0.78906 0.63281 0.16406 7.8516-1.1406 15.855-3.9414 23.152-8.0312-0.3125-16.051-0.83594-24.062-1.4961-1.0352-0.085937-1.0234 1.5195 0 1.6055 7.8008 0.63281 15.605 1.1484 23.426 1.4688-0.73438 1.7148-1.5547 3.4141-2.4609 5.0547z"/>
  <use x="70" y="644" xlink:href="#v"/>
  <use x="90.550781" y="644" xlink:href="#b"/>
  <use x="104.359375" y="644" xlink:href="#d"/>
  <use x="123.347656" y="644" xlink:href="#c"/>
  <use x="142.242188" y="644" xlink:href="#e"/>
  <use x="155.628906" y="644" xlink:href="#d"/>
  <use x="174.617188" y="644" xlink:href="#l"/>
  <use x="204.410156" y="644" xlink:href="#k"/>
  <use x="224.453125" y="644" xlink:href="#f"/>
  <use x="252.453125" y="644" xlink:href="#j"/>
  <use x="275.433594" y="644" xlink:href="#c"/>
  <use x="294.328125" y="644" xlink:href="#u"/>
  <use x="314.371094" y="644" xlink:href="#c"/>
  <use x="333.265625" y="644" xlink:href="#i"/>
  <use x="359.679688" y="644" xlink:href="#t"/>
  <use x="381.351562" y="644" xlink:href="#b"/>
  <use x="395.15625" y="644" xlink:href="#f"/>
  <use x="413.410156" y="644" xlink:href="#a"/>
  <use x="442.394531" y="644" xlink:href="#h"/>
  <use x="462.914062" y="644" xlink:href="#b"/>
  <use x="476.726562" y="644" xlink:href="#c"/>
  <use x="495.617187" y="644" xlink:href="#i"/>
  <use x="512.285156" y="644" xlink:href="#a"/>
  <use x="531.523437" y="644" xlink:href="#g"/>
  <use x="541.117187" y="644" xlink:href="#a"/>
  <use x="70" y="672" xlink:href="#s"/>
  <use x="82.183594" y="672" xlink:href="#b"/>
  <use x="95.992188" y="672" xlink:href="#a"/>
  <use x="115.226562" y="672" xlink:href="#r"/>
  <use x="154.152344" y="672" xlink:href="#e"/>
  <use x="167.535156" y="672" xlink:href="#q"/>
  <use x="187.46875" y="672" xlink:href="#d"/>
  <use x="216.207031" y="672" xlink:href="#p"/>
  <use x="239.640625" y="672" xlink:href="#a"/>
  <use x="258.878906" y="672" xlink:href="#o"/>
  <use x="278.8125" y="672" xlink:href="#n"/>
  <use x="308.492188" y="672" xlink:href="#h"/>
  <use x="329.015625" y="672" xlink:href="#b"/>
  <use x="342.820312" y="672" xlink:href="#a"/>
  <use x="362.058594" y="672" xlink:href="#g"/>
  <use x="371.65625" y="672" xlink:href="#d"/>
  <use x="390.648438" y="672" xlink:href="#m"/>
  <use x="407.242188" y="672" xlink:href="#e"/>
 </g>
</svg>
