<?xml version="1.0" encoding="UTF-8"?>
<svg width="700pt" height="700pt" version="1.1" viewBox="0 0 700 700" xmlns="http://www.w3.org/2000/svg" xmlns:xlink="http://www.w3.org/1999/xlink">
 <defs>
  <symbol id="v" overflow="visible">
   <path d="m18.766-1.125c-0.96875 0.5-1.9805 0.875-3.0312 1.125-1.043 0.25781-2.1367 0.39062-3.2812 0.39062-3.3984 0-6.0898-0.94531-8.0781-2.8438-1.9922-1.9062-2.9844-4.4844-2.9844-7.7344 0-3.2578 0.99219-5.8359 2.9844-7.7344 1.9883-1.9062 4.6797-2.8594 8.0781-2.8594 1.1445 0 2.2383 0.13281 3.2812 0.39062 1.0508 0.25 2.0625 0.625 3.0312 1.125v4.2188c-0.98047-0.65625-1.9453-1.1406-2.8906-1.4531-0.94922-0.3125-1.9492-0.46875-3-0.46875-1.875 0-3.3516 0.60547-4.4219 1.8125-1.0742 1.1992-1.6094 2.8555-1.6094 4.9688 0 2.1055 0.53516 3.7617 1.6094 4.9688 1.0703 1.1992 2.5469 1.7969 4.4219 1.7969 1.0508 0 2.0508-0.14844 3-0.45312 0.94531-0.3125 1.9102-0.80078 2.8906-1.4688z"/>
  </symbol>
  <symbol id="b" overflow="visible">
   <path d="m13.734-11.141c-0.4375-0.19531-0.87109-0.34375-1.2969-0.4375-0.41797-0.10156-0.83984-0.15625-1.2656-0.15625-1.2617 0-2.2305 0.40625-2.9062 1.2188-0.67969 0.80469-1.0156 1.9531-1.0156 3.4531v7.0625h-4.8906v-15.312h4.8906v2.5156c0.625-1 1.3438-1.7266 2.1562-2.1875 0.82031-0.46875 1.8008-0.70312 2.9375-0.70312 0.16406 0 0.34375 0.011719 0.53125 0.03125 0.19531 0.011719 0.47656 0.039062 0.84375 0.078125z"/>
  </symbol>
  <symbol id="d" overflow="visible">
   <path d="m17.641-7.7031v1.4062h-11.453c0.125 1.1484 0.53906 2.0078 1.25 2.5781 0.70703 0.57422 1.7031 0.85938 2.9844 0.85938 1.0312 0 2.082-0.14844 3.1562-0.45312 1.082-0.3125 2.1914-0.77344 3.3281-1.3906v3.7656c-1.1562 0.4375-2.3125 0.76562-3.4688 0.98438-1.1562 0.22656-2.3125 0.34375-3.4688 0.34375-2.7734 0-4.9297-0.70312-6.4688-2.1094-1.5312-1.4062-2.2969-3.3789-2.2969-5.9219 0-2.5 0.75391-4.4609 2.2656-5.8906 1.5078-1.4375 3.582-2.1562 6.2188-2.1562 2.4062 0 4.332 0.73047 5.7812 2.1875 1.4453 1.4492 2.1719 3.3828 2.1719 5.7969zm-5.0312-1.625c0-0.92578-0.27344-1.6719-0.8125-2.2344-0.54297-0.57031-1.25-0.85938-2.125-0.85938-0.94922 0-1.7188 0.26562-2.3125 0.79688s-0.96484 1.2969-1.1094 2.2969z"/>
  </symbol>
  <symbol id="c" overflow="visible">
   <path d="m9.2188-6.8906c-1.0234 0-1.793 0.17188-2.3125 0.51562-0.51172 0.34375-0.76562 0.85547-0.76562 1.5312 0 0.625 0.20703 1.1172 0.625 1.4688 0.41406 0.34375 0.98828 0.51562 1.7188 0.51562 0.92578 0 1.7031-0.32812 2.3281-0.98438 0.63281-0.66406 0.95312-1.4922 0.95312-2.4844v-0.5625zm7.4688-1.8438v8.7344h-4.9219v-2.2656c-0.65625 0.92969-1.3984 1.6055-2.2188 2.0312-0.82422 0.41406-1.8242 0.625-3 0.625-1.5859 0-2.8711-0.45703-3.8594-1.375-0.99219-0.92578-1.4844-2.1289-1.4844-3.6094 0-1.7891 0.61328-3.1016 1.8438-3.9375 1.2383-0.84375 3.1797-1.2656 5.8281-1.2656h2.8906v-0.39062c0-0.76953-0.30859-1.332-0.92188-1.6875-0.61719-0.36328-1.5703-0.54688-2.8594-0.54688-1.0547 0-2.0312 0.10547-2.9375 0.3125-0.89844 0.21094-1.7305 0.52344-2.5 0.9375v-3.7344c1.0391-0.25 2.0859-0.44141 3.1406-0.57812 1.0625-0.13281 2.125-0.20312 3.1875-0.20312 2.7578 0 4.75 0.54688 5.9688 1.6406 1.2266 1.0859 1.8438 2.8555 1.8438 5.3125z"/>
  </symbol>
  <symbol id="e" overflow="visible">
   <path d="m7.7031-19.656v4.3438h5.0469v3.5h-5.0469v6.5c0 0.71094 0.14062 1.1875 0.42188 1.4375s0.83594 0.375 1.6719 0.375h2.5156v3.5h-4.1875c-1.9375 0-3.3125-0.39844-4.125-1.2031-0.80469-0.8125-1.2031-2.1797-1.2031-4.1094v-6.5h-2.4219v-3.5h2.4219v-4.3438z"/>
  </symbol>
  <symbol id="l" overflow="visible">
   <path d="m12.766-13.078v-8.2031h4.9219v21.281h-4.9219v-2.2188c-0.66797 0.90625-1.4062 1.5703-2.2188 1.9844s-1.7578 0.625-2.8281 0.625c-1.8867 0-3.4336-0.75-4.6406-2.25-1.2109-1.5-1.8125-3.4258-1.8125-5.7812 0-2.3633 0.60156-4.2969 1.8125-5.7969 1.207-1.5 2.7539-2.25 4.6406-2.25 1.0625 0 2 0.21484 2.8125 0.64062 0.82031 0.42969 1.5664 1.0859 2.2344 1.9688zm-3.2188 9.9219c1.0391 0 1.8359-0.37891 2.3906-1.1406 0.55078-0.76953 0.82812-1.8828 0.82812-3.3438 0-1.457-0.27734-2.5664-0.82812-3.3281-0.55469-0.76953-1.3516-1.1562-2.3906-1.1562-1.043 0-1.8398 0.38672-2.3906 1.1562-0.55469 0.76172-0.82812 1.8711-0.82812 3.3281 0 1.4609 0.27344 2.5742 0.82812 3.3438 0.55078 0.76172 1.3477 1.1406 2.3906 1.1406z"/>
  </symbol>
  <symbol id="k" overflow="visible">
   <path d="m10.5-3.1562c1.0508 0 1.8516-0.37891 2.4062-1.1406 0.55078-0.76953 0.82812-1.8828 0.82812-3.3438 0-1.457-0.27734-2.5664-0.82812-3.3281-0.55469-0.76953-1.3555-1.1562-2.4062-1.1562-1.0547 0-1.8594 0.38672-2.4219 1.1562-0.55469 0.77344-0.82812 1.8828-0.82812 3.3281 0 1.4492 0.27344 2.5586 0.82812 3.3281 0.5625 0.77344 1.3672 1.1562 2.4219 1.1562zm-3.25-9.9219c0.67578-0.88281 1.4219-1.5391 2.2344-1.9688 0.82031-0.42578 1.7656-0.64062 2.8281-0.64062 1.8945 0 3.4453 0.75 4.6562 2.25 1.207 1.5 1.8125 3.4336 1.8125 5.7969 0 2.3555-0.60547 4.2812-1.8125 5.7812-1.2109 1.5-2.7617 2.25-4.6562 2.25-1.0625 0-2.0078-0.21094-2.8281-0.625-0.8125-0.42578-1.5586-1.0859-2.2344-1.9844v2.2188h-4.8906v-21.281h4.8906z"/>
  </symbol>
  <symbol id="f" overflow="visible">
   <path d="m0.34375-15.312h4.8906l4.125 10.391 3.5-10.391h4.8906l-6.4375 16.766c-0.64844 1.6953-1.4023 2.8828-2.2656 3.5625-0.86719 0.6875-2 1.0312-3.4062 1.0312h-2.8438v-3.2188h1.5312c0.83203 0 1.4375-0.13672 1.8125-0.40625 0.38281-0.26172 0.67969-0.73047 0.89062-1.4062l0.14062-0.42188z"/>
  </symbol>
  <symbol id="j" overflow="visible">
   <path d="m20.922-1.5156c-1.3125 0.63672-2.6797 1.1172-4.0938 1.4375-1.4062 0.3125-2.8672 0.46875-4.375 0.46875-3.3984 0-6.0898-0.94531-8.0781-2.8438-1.9922-1.9062-2.9844-4.4844-2.9844-7.7344 0-3.2891 1.0078-5.8789 3.0312-7.7656 2.0312-1.8828 4.8047-2.8281 8.3281-2.8281 1.3516 0 2.6484 0.13281 3.8906 0.39062 1.25 0.25 2.4258 0.625 3.5312 1.125v4.2188c-1.1484-0.64453-2.2812-1.125-3.4062-1.4375-1.125-0.32031-2.25-0.48438-3.375-0.48438-2.1055 0-3.7266 0.58984-4.8594 1.7656-1.125 1.168-1.6875 2.8398-1.6875 5.0156 0 2.1562 0.54688 3.8242 1.6406 5 1.0938 1.1797 2.6445 1.7656 4.6562 1.7656 0.53906 0 1.0469-0.03125 1.5156-0.09375 0.47656-0.070313 0.89844-0.17969 1.2656-0.32812v-3.9688h-3.2031v-3.5156h8.2031z"/>
  </symbol>
  <symbol id="u" overflow="visible">
   <path d="m12.766-2.5938c-0.66797 0.88672-1.4062 1.543-2.2188 1.9688-0.8125 0.41797-1.7578 0.625-2.8281 0.625-1.8672 0-3.4062-0.73438-4.625-2.2031-1.2188-1.4766-1.8281-3.3516-1.8281-5.625 0-2.2891 0.60938-4.1641 1.8281-5.625 1.2188-1.4688 2.7578-2.2031 4.625-2.2031 1.0703 0 2.0156 0.21484 2.8281 0.64062 0.8125 0.41797 1.5508 1.0742 2.2188 1.9688v-2.2656h4.9219v13.766c0 2.457-0.77734 4.3359-2.3281 5.6406-1.5547 1.3008-3.8086 1.9531-6.7656 1.9531-0.94922 0-1.8711-0.074219-2.7656-0.21875-0.89844-0.14844-1.7969-0.37109-2.7031-0.67188v-3.8125c0.86328 0.48828 1.7031 0.85156 2.5156 1.0938 0.82031 0.23828 1.6484 0.35938 2.4844 0.35938 1.6016 0 2.7734-0.35156 3.5156-1.0469 0.75-0.69922 1.125-1.7969 1.125-3.2969zm-3.2188-9.5312c-1.0117 0-1.8047 0.375-2.375 1.125-0.5625 0.74219-0.84375 1.7969-0.84375 3.1719 0 1.3984 0.26953 2.4609 0.8125 3.1875 0.55078 0.71875 1.3516 1.0781 2.4062 1.0781 1.0195 0 1.8125-0.36719 2.375-1.1094 0.5625-0.75 0.84375-1.8008 0.84375-3.1562 0-1.375-0.28125-2.4297-0.84375-3.1719-0.5625-0.75-1.3555-1.125-2.375-1.125z"/>
  </symbol>
  <symbol id="i" overflow="visible">
   <path d="m14.312-14.828v3.7188c-1.043-0.4375-2.0547-0.76562-3.0312-0.98438-0.98047-0.21875-1.9023-0.32812-2.7656-0.32812-0.92969 0-1.6211 0.11719-2.0781 0.34375-0.44922 0.23047-0.67188 0.58984-0.67188 1.0781 0 0.38672 0.17188 0.68359 0.51562 0.89062 0.34375 0.21094 0.95703 0.36719 1.8438 0.46875l0.85938 0.125c2.5078 0.32422 4.1953 0.85156 5.0625 1.5781 0.86328 0.73047 1.2969 1.8711 1.2969 3.4219 0 1.6367-0.60547 2.8672-1.8125 3.6875-1.1992 0.8125-2.9922 1.2188-5.375 1.2188-1.0234 0-2.0742-0.078125-3.1562-0.23438-1.0742-0.15625-2.1797-0.39453-3.3125-0.71875v-3.7188c0.96875 0.48047 1.9609 0.83984 2.9844 1.0781 1.0312 0.23047 2.0781 0.34375 3.1406 0.34375 0.95703 0 1.6758-0.12891 2.1562-0.39062 0.47656-0.26953 0.71875-0.66406 0.71875-1.1875 0-0.4375-0.16797-0.75781-0.5-0.96875-0.33594-0.21875-0.99609-0.38281-1.9844-0.5l-0.85938-0.10938c-2.1797-0.26953-3.7031-0.77344-4.5781-1.5156-0.875-0.73828-1.3125-1.8594-1.3125-3.3594 0-1.625 0.55078-2.8281 1.6562-3.6094 1.1133-0.78906 2.8203-1.1875 5.125-1.1875 0.89453 0 1.8359 0.074219 2.8281 0.21875 1 0.13672 2.082 0.35156 3.25 0.64062z"/>
  </symbol>
  <symbol id="t" overflow="visible">
   <path d="m14.953-3.7188h-8.2188l-1.3125 3.7188h-5.2812l7.5625-20.406h6.2656l7.5625 20.406h-5.2812zm-6.9062-3.7812h5.5781l-2.7812-8.125z"/>
  </symbol>
  <symbol id="a" overflow="visible">
   <path d="m9.6406-12.188c-1.0859 0-1.9141 0.39062-2.4844 1.1719-0.57422 0.78125-0.85938 1.9062-0.85938 3.375s0.28516 2.5938 0.85938 3.375c0.57031 0.77344 1.3984 1.1562 2.4844 1.1562 1.0625 0 1.875-0.38281 2.4375-1.1562 0.57031-0.78125 0.85938-1.9062 0.85938-3.375s-0.28906-2.5938-0.85938-3.375c-0.5625-0.78125-1.375-1.1719-2.4375-1.1719zm0-3.5c2.6328 0 4.6914 0.71484 6.1719 2.1406 1.4766 1.418 2.2188 3.3867 2.2188 5.9062 0 2.5117-0.74219 4.4805-2.2188 5.9062-1.4805 1.418-3.5391 2.125-6.1719 2.125-2.6484 0-4.7148-0.70703-6.2031-2.125-1.4922-1.4258-2.2344-3.3945-2.2344-5.9062 0-2.5195 0.74219-4.4883 2.2344-5.9062 1.4883-1.4258 3.5547-2.1406 6.2031-2.1406z"/>
  </symbol>
  <symbol id="h" overflow="visible">
   <path d="m2.5781-20.406h8.7344c2.5938 0 4.582 0.57812 5.9688 1.7344 1.3945 1.1484 2.0938 2.7891 2.0938 4.9219 0 2.1367-0.69922 3.7812-2.0938 4.9375-1.3867 1.1562-3.375 1.7344-5.9688 1.7344h-3.4844v7.0781h-5.25zm5.25 3.8125v5.7031h2.9219c1.0195 0 1.8047-0.25 2.3594-0.75 0.5625-0.5 0.84375-1.2031 0.84375-2.1094 0-0.91406-0.28125-1.6172-0.84375-2.1094-0.55469-0.48828-1.3398-0.73438-2.3594-0.73438z"/>
  </symbol>
  <symbol id="g" overflow="visible">
   <path d="m2.3594-15.312h4.8906v15.031c0 2.0508-0.49609 3.6172-1.4844 4.7031-0.98047 1.082-2.4062 1.625-4.2812 1.625h-2.4219v-3.2188h0.85938c0.92578 0 1.5625-0.21094 1.9062-0.625 0.35156-0.41797 0.53125-1.2461 0.53125-2.4844zm0-5.9688h4.8906v4h-4.8906z"/>
  </symbol>
  <symbol id="s" overflow="visible">
   <path d="m12.422-21.281v3.2188h-2.7031c-0.6875 0-1.1719 0.125-1.4531 0.375-0.27344 0.25-0.40625 0.6875-0.40625 1.3125v1.0625h4.1875v3.5h-4.1875v11.812h-4.8906v-11.812h-2.4375v-3.5h2.4375v-1.0625c0-1.6641 0.46094-2.8984 1.3906-3.7031 0.92578-0.80078 2.3672-1.2031 4.3281-1.2031z"/>
  </symbol>
  <symbol id="r" overflow="visible">
   <path d="m16.547-12.766c0.61328-0.94531 1.3477-1.6719 2.2031-2.1719 0.85156-0.5 1.7891-0.75 2.8125-0.75 1.7578 0 3.0977 0.54688 4.0156 1.6406 0.92578 1.0859 1.3906 2.6562 1.3906 4.7188v9.3281h-4.9219v-7.9844-0.35938c0.007813-0.13281 0.015625-0.32031 0.015625-0.5625 0-1.082-0.16406-1.8633-0.48438-2.3438-0.3125-0.48828-0.82422-0.73438-1.5312-0.73438-0.92969 0-1.6484 0.38672-2.1562 1.1562-0.51172 0.76172-0.77344 1.8672-0.78125 3.3125v7.5156h-4.9219v-7.9844c0-1.6953-0.14844-2.7852-0.4375-3.2656-0.29297-0.48828-0.8125-0.73438-1.5625-0.73438-0.9375 0-1.6641 0.38672-2.1719 1.1562-0.51172 0.76172-0.76562 1.8594-0.76562 3.2969v7.5312h-4.9219v-15.312h4.9219v2.2344c0.60156-0.86328 1.2891-1.5156 2.0625-1.9531 0.78125-0.4375 1.6406-0.65625 2.5781-0.65625 1.0625 0 2 0.25781 2.8125 0.76562 0.8125 0.51172 1.4258 1.2305 1.8438 2.1562z"/>
  </symbol>
  <symbol id="q" overflow="visible">
   <path d="m17.75-9.3281v9.3281h-4.9219v-7.1094c0-1.3438-0.03125-2.2656-0.09375-2.7656s-0.16797-0.86719-0.3125-1.1094c-0.1875-0.3125-0.44922-0.55469-0.78125-0.73438-0.32422-0.17578-0.69531-0.26562-1.1094-0.26562-1.0234 0-1.8242 0.39844-2.4062 1.1875-0.58594 0.78125-0.875 1.8711-0.875 3.2656v7.5312h-4.8906v-21.281h4.8906v8.2031c0.73828-0.88281 1.5195-1.5391 2.3438-1.9688 0.83203-0.42578 1.75-0.64062 2.75-0.64062 1.7695 0 3.1133 0.54688 4.0312 1.6406 0.91406 1.0859 1.375 2.6562 1.375 4.7188z"/>
  </symbol>
  <symbol id="p" overflow="visible">
   <path d="m2.5781-20.406h5.875l7.4219 14v-14h4.9844v20.406h-5.875l-7.4219-14v14h-4.9844z"/>
  </symbol>
  <symbol id="o" overflow="visible">
   <path d="m2.1875-5.9688v-9.3438h4.9219v1.5312c0 0.83594-0.007813 1.875-0.015625 3.125-0.011719 1.25-0.015625 2.0859-0.015625 2.5 0 1.2422 0.03125 2.1328 0.09375 2.6719 0.070313 0.54297 0.17969 0.93359 0.32812 1.1719 0.20703 0.32422 0.47266 0.57422 0.79688 0.75 0.32031 0.16797 0.69141 0.25 1.1094 0.25 1.0195 0 1.8203-0.39062 2.4062-1.1719 0.58203-0.78125 0.875-1.8672 0.875-3.2656v-7.5625h4.8906v15.312h-4.8906v-2.2188c-0.74219 0.89844-1.5234 1.5586-2.3438 1.9844-0.82422 0.41406-1.7344 0.625-2.7344 0.625-1.7617 0-3.1055-0.53906-4.0312-1.625-0.92969-1.082-1.3906-2.6602-1.3906-4.7344z"/>
  </symbol>
  <symbol id="n" overflow="visible">
   <path d="m17.75-9.3281v9.3281h-4.9219v-7.1406c0-1.3203-0.03125-2.2344-0.09375-2.7344s-0.16797-0.86719-0.3125-1.1094c-0.1875-0.3125-0.44922-0.55469-0.78125-0.73438-0.32422-0.17578-0.69531-0.26562-1.1094-0.26562-1.0234 0-1.8242 0.39844-2.4062 1.1875-0.58594 0.78125-0.875 1.8711-0.875 3.2656v7.5312h-4.8906v-15.312h4.8906v2.2344c0.73828-0.88281 1.5195-1.5391 2.3438-1.9688 0.83203-0.42578 1.75-0.64062 2.75-0.64062 1.7695 0 3.1133 0.54688 4.0312 1.6406 0.91406 1.0859 1.375 2.6562 1.375 4.7188z"/>
  </symbol>
  <symbol id="m" overflow="visible">
   <path d="m14.719-14.828v3.9844c-0.65625-0.45703-1.3242-0.79688-2-1.0156-0.66797-0.21875-1.3594-0.32812-2.0781-0.32812-1.3672 0-2.4336 0.40234-3.2031 1.2031-0.76172 0.79297-1.1406 1.9062-1.1406 3.3438 0 1.4297 0.37891 2.543 1.1406 3.3438 0.76953 0.79297 1.8359 1.1875 3.2031 1.1875 0.75781 0 1.4844-0.10938 2.1719-0.32812 0.6875-0.22656 1.3203-0.56641 1.9062-1.0156v4c-0.76172 0.28125-1.5391 0.48828-2.3281 0.625-0.78125 0.14453-1.5742 0.21875-2.375 0.21875-2.7617 0-4.9219-0.70703-6.4844-2.125-1.5547-1.4141-2.3281-3.3828-2.3281-5.9062 0-2.5312 0.77344-4.5039 2.3281-5.9219 1.5625-1.4141 3.7227-2.125 6.4844-2.125 0.80078 0 1.5938 0.074219 2.375 0.21875 0.78125 0.13672 1.5547 0.35156 2.3281 0.64062z"/>
  </symbol>
 </defs>
 <g>
  <path d="m273.8 248.73c-8.2305-5.3359-14.867 3.3047-17.922 10.039-0.14453 0.32031-0.17969 0.63281-0.14062 0.91797-0.44141 0.33984-0.6875 0.89453-0.44922 1.5977 4.1367 12.062 17.18 12.281 28.012 12.27 0.50391 0 0.87891-0.19531 1.1406-0.48047 1.0039 0.24219 2.3398-0.59766 2.1055-1.9727-1.4531-8.4062-5.3242-17.574-12.746-22.371zm2.6719 7.2734c0.16406-0.035156 0.3125-0.089844 0.4375-0.15234 0.76563 0.96484 1.4688 1.9805 2.082 3.0625-0.11328 0.035157-0.22266 0.078126-0.34766 0.14063-1.0742 0.58203-2.3867 1.082-3.6328 0.89453-0.89453-0.12891-1.5352-0.52734-1.8867-1.0938-0.27344-0.4375-0.26172-0.875 0.10156-1.4453 0.55469-0.86719 2.1758-1.2344 3.2461-1.4062zm-2.0391-2.8125c-0.078125 0.023438-0.15234 0.054688-0.23047 0.078125 0-0.10156-0.011719-0.19531-0.027343-0.28516 0.074218 0.054687 0.13281 0.11328 0.21094 0.17188 0.015625 0.015625 0.03125 0.023438 0.046875 0.035156zm-15.957 7.4844c0.066406-0.089843 0.11719-0.18359 0.16797-0.28516 2.0938-4.625 5.1875-9.1211 9.1914-9.6992-1.7266 0.82812-3.1992 2.0898-4.0312 3.9375-1.2266 2.7227-0.64844 5.8203 0.82812 8.3203 1.4727 2.4922 4.0586 4.3516 6.8984 4.8789 3.7695 0.71094 7.2422-1.1367 9.8906-3.6719 0.74609 2.0547 1.293 4.1562 1.7266 6.1992-9.0039 0.019531-21.012 0.40625-24.672-9.6797z"/>
  <path d="m295.9 271.2c0.003906 0.023438 0.015625 0.042969 0.023437 0.066407 0.14453 0.42578 0.47656 0.80078 1.0352 0.96484 11.148 3.2266 26.836 0.35938 35.711-7.2422 0.58203-0.50391 0.63281-1.1133 0.39062-1.6406 0.011719-0.23047-0.035156-0.48047-0.14062-0.73438-3.6953-8.4766-10.445-15.059-20.238-12.797-9.2109 2.1328-14.902 11.934-16.84 20.441-0.074219 0.32031-0.042969 0.60938 0.039062 0.86328 0.003907 0.023437 0.015626 0.058593 0.019532 0.078124zm21.445-15.453c0.023438-0.4375-0.11328-0.77734-0.32422-1.0312 1.6367-0.44922 3.375-0.32031 4.5625 0.90625 1.0078 1.0547-0.003907 3.8203-1.2031 4.2461-1.9492 0.6875-3.0977-2.8516-3.0352-4.1211zm-1.3438 8.0781c-2.8828-0.16406-5.6562-1.6953-6.5781-4.4727 1.1602 2.4961 3.5859 4.2109 6.5781 4.4727zm3.6758-0.76172c0.12891 0.023437 0.26953 0.035156 0.39062 0.042968-0.20312 0.097657-0.42187 0.17578-0.64453 0.26172 0.097657-0.085937 0.1875-0.19531 0.25391-0.30469zm-13.691-5.5469c0.48047 11.832 19.363 12.762 21.086 1.2617 1.0234 1.4102 1.9023 2.9414 2.6445 4.4961-7.707 6.0938-20.766 8.4336-30.375 6.2422 1.2344-4.4844 3.4102-8.7656 6.6445-12z"/>
  <path d="m302.09 293.89c-2.2578-0.67578-4.5039-1.7578-5.8672-3.707-0.46484-1.5742-0.80078-3.1602-1.082-4.7695 1.1133-0.96484 1.8867-2.25 3.0625-3.1094 0.77734-0.57031 1.1719-1.7812 0.33203-2.5156-1.8828-1.6289-4.5938-3.2383-7.1172-2.1211-2.8438 1.2617-1.9102 4.8789-0.94531 7.043 0.24609 0.55859 0.86328 0.80078 1.4492 0.77734 0.26172 1.5273 0.55859 3.0508 0.94141 4.5469-0.066406 0.33984-0.035156 0.69922 0.16797 1.082 0.027344 0.042969 0.066406 0.089844 0.09375 0.14062-0.46875 1.4766-1.4297 2.5039-2.9727 3.0508-1.9375 0.6875-1.1016 3.7734 0.84375 3.0977 1.8984-0.67578 3.4258-1.8242 4.4141-3.4102 1.668 1.4102 3.7422 2.3516 5.8398 2.9727 1.9727 0.61328 2.8125-2.4844 0.83984-3.0781z"/>
  <path d="m470.16 257.3c-1.7969-24.336-25.922-51.32-51.871-46.082-7.3477-7.4258-16.32-12.992-26.254-16.273-0.11719-0.054688-0.23437-0.10156-0.36328-0.11719-7.2344-2.3398-14.98-3.4766-22.977-3.2383-28.59 0.875-51.191 20.539-67.805 42.055h-18.906c-11.379-5.9062-24.465-16-37.953-14.035-0.71875 0.11328-1.1523 0.89453-1.1758 1.5391-0.34766 9.2734 7.6758 17.566 13.312 24.457-9.1836 10.02-7.7344 24.891-1.3086 37.09-8.1406 0.73438-16.277 2.0664-24.488 2.9727-1.0117 0.11328-1.0234 1.707 0 1.5977 8.4766-0.92969 16.902-2.3516 25.316-3.0742 1.0547 1.8359 2.2188 3.6133 3.4766 5.2812-9.1992 3.4219-17.695 8.7695-27.066 12.945-0.94531 0.41406-0.125 1.793 0.80469 1.3789 9.4258-4.1992 17.969-9.6602 27.281-13.016 1.0742 1.332 2.207 2.6055 3.3945 3.7734-9.0117 4.3867-17.254 10.281-25.246 16.527-0.8125 0.63281 0.33203 1.7578 1.1328 1.125 8.0117-6.2539 16.277-12.152 25.344-16.469 2.1211 1.9375 4.3672 3.6016 6.6914 4.8906 8.0977 4.4844 17.734 6.0703 27.098 5.918 0.035157 0.035157 0.066407 0.054688 0.10547 0.078125 5.7773 3.457 12.422 6.3438 16.184 12.207 5.6562 8.8047-4.4688 13.402-6.668 20.574-3 9.7656-3.1406 26.188 5.5312 33.141 0.42578 0.34766 0.90625 0.42578 1.3438 0.34766 0.6875 0.054687 1.4297-0.26172 1.7539-1.0547 2.4453-5.9453 3.1875-12.305 4.7227-18.508 1.9805-7.9961 6.7461-12.523 14.371-14.582 0.85547 8.3672 0.90234 16.844 1.3984 25.68 0.26172 4.8008-0.054688 27.828 8.707 26.93 0.19141-0.023437 0.35938-0.066406 0.52734-0.14062 0.32031-0.10156 0.61719-0.30859 0.85156-0.64453 5.7617-8.5195 8.8867-17.5 9.4961-27.77 0.55859-9.25-1.2539-18.441-0.64453-27.691 1.0039-15.25 6.0977-33.371 17.137-44.457 3.1914-3.1914 6.4414-4.7695 9.6562-5.1172 0.074219 0.11719 0.15234 0.24219 0.26953 0.34766 11.691 11.613 15.613 28.117 17.164 44.023 0.76563 7.8398 0.78516 15.746 0.57813 23.613-0.25391 9.2734-2.25 18.441-1.9883 27.703 0.023438 0.81641 0.71875 1.6875 1.6016 1.6055 3-0.27344 5.0391-1.2148 7.0742-3.0312 0.20312 1.4766 0.46094 2.9414 0.77734 4.4062 0.089844 0.39062 0.27344 0.67578 0.51562 0.86328 0.33594 0.34766 0.83594 0.50391 1.457 0.26172 9.0938-3.6406 13.043-13.887 15.688-22.629 3.7539-12.395 5.6094-25.801 7.8008-38.543 1.1133-6.5078 2.0273-13.047 2.7617-19.609-1.0234 19.074 0.69922 40.176 16.492 52.02 1.4961 1.125 2.9336-1.0547 1.9805-2.3867-0.015625-0.089844-0.035156-0.18359-0.0625-0.27344-2.9453-9.3984-0.60938-17.652 2.3594-26.645 2.4805-7.5391 4.2891-15.309 6.2734-22.98 3.957-15.277 7.5234-31.105 6.3477-46.984zm-78.691-25.867v-0.042969c0.035156-0.023437 0.074219-0.042969 0.11328-0.066406-0.046876 0.03125-0.074219 0.074219-0.11328 0.10938zm-46.816 19.262c-1.1133-4.8672-1.5117-9.7422 0.19531-14.656 2.2188-6.3672 7.9648-11.66 12.152-16.742 0.015625-0.011719 0.023438-0.035156 0.039063-0.054687 0.46094 0.41406 0.75 1.0586 0.8125 1.9805 0.33203 4.9453-3.6914 10.664-6.0156 14.777-2.7539 4.8516-5.4297 9.5352-7.1836 14.695zm62.168 125.56c-1.1484 1.5391-2.6641 2.5586-4.5234 3.0742 0.003907-9.1914 1.7812-18.34 2.0312-27.551 0.22266-8.5273-0.0625-17.074-1.0078-25.547-1.6055-14.516-5.8086-29.309-15.613-40.359 11.918 2.8672 22.242 20.668 24.328 31.246 2.2695 11.496-0.91406 23.605-2.957 34.887-1.4375 7.9648-2.3242 15.914-1.7305 23.879-0.1875 0.082031-0.36719 0.19922-0.52734 0.37109zm28.93-103.2c-0.35938 16.031-1.9531 32.039-4.4453 47.863-1.7305 10.969-3.875 21.965-6.1641 32.832-1.9023 9.0312-4.9375 22.805-13.875 27.727-4.3164-24.387 10.152-48.586 1.8438-72.672-4.6211-13.41-19.773-31.785-35.738-24.84-13.727 5.957-19.68 25.855-22.535 39.027-1.9258 8.8711-2.0156 17.477-1.4062 26.5 0.96484 14.129-0.37891 26.531-8.1602 38.543-4.9883-2.0781-5.0078-29.191-5.1289-32.809-0.50391-14.789-1.2227-27.836-7.2188-41.816-0.8125-1.8945-3.5742-0.26172-2.7656 1.6172 2.957 6.8828 4.5195 13.668 5.4141 20.531-6.8477 1.6875-12.691 5.2578-15.457 12.105-2.7656 6.8164-3.207 14.262-5.5703 21.207-4.9883-5.4375-4.7891-14.184-4.4805-21.219 0.21875-4.9688 1.5-8.6055 4.6758-12.414 1.9766-2.375 3.5273-4.625 4.4258-7.5977 3.1094-10.281-6.7305-16.711-14.758-21.391 0.97266-0.10156 1.9492-0.19531 2.9102-0.32031 10.168-1.2891 18.453-5.8633 25.789-12.129 4.582 1.2617 9.082 2.7656 13.402 4.8906 0.91797 0.44922 1.7305-0.92969 0.80469-1.3906-4.1172-2.0234-8.4102-3.5-12.777-4.7383 1.6055-1.4453 3.1758-2.9609 4.7109-4.5469 3.4844 0.53906 6.9648 1.1484 10.445 1.7812 1.0117 0.18359 1.4375-1.3438 0.42578-1.5391-3.1758-0.58203-6.3633-1.1367-9.543-1.6406 0.35156-0.37891 0.71875-0.75781 1.0703-1.1484 1.3828-1.5195-0.875-3.7969-2.2617-2.2617-0.87891 0.96484-1.7695 1.9023-2.6719 2.832-9.625-1.3984-19.297-2.2734-29.07-2.0781-1.0352 0.023437-1.0352 1.6289 0 1.6055 9.2969-0.19531 18.52 0.58984 27.676 1.8828-1.457 1.4453-2.9453 2.8242-4.4805 4.1328-7.4922-1.8945-15.148-3.2578-22.559-5.4609-0.99219-0.29688-1.4102 1.2617-0.42578 1.5391 7.043 2.1016 14.332 3.4102 21.477 5.1641-5.5781 4.4648-11.793 7.8945-19.227 9.4297-10.809 2.2305-22.445 1.2891-32.777-2.4688-3.2031-1.1719-6.3242-3.0977-9.2188-5.5312 3.4375-1.457 7-2.6719 10.711-3.5898 1.0039-0.25391 0.57813-1.793-0.42578-1.5508-4.0312 1.0078-7.8867 2.3633-11.602 3.9805-1.1484-1.0547-2.2383-2.1797-3.293-3.3828 4.4844-1.332 9.1719-2.1328 14.258-2.0117 1.0312 0.023437 1.0312-1.5742 0-1.6055-5.5-0.11719-10.555 0.77734-15.371 2.2852-1.1367-1.4102-2.2109-2.8906-3.1797-4.4414 6.9453-0.41406 13.895-0.25391 20.906 1.1719 1.0078 0.20703 1.4336-1.332 0.42188-1.5391-7.4648-1.5195-14.855-1.6406-22.238-1.1367-6.9062-11.934-8.5195-26.863 1.8125-36.238 1.2891-1.1719-0.11719-2.9414-1.5117-2.6484-3.1211-3.9141-6.25-7.8125-8.9609-12.027-1.3789-2.1445-2.4688-4.4414-3.2461-6.8828-1.2617-3.9023 3.6953-1.9727 6.2344-1.3906 9.5586 2.1445 18.078 8.0312 26.672 12.602 0.19531 0.55859 0.67578 0.99609 1.4453 0.99609h18.543c5.2656 6.3438 11.145 7.1133 18.969 7.7656 11.047 0.92969 16.48 9.6484 25.723 14.219 1.4219 0.69922 2.7031-0.77734 2.3789-1.9141 1.6953-9.25 7.1172-16.688 11.289-24.914 1.9883-3.9375 5.3047-10.359 2.2344-14.527-7.0117-9.5039-29.559 11.039-36.73 16.18h-18.223c3.4375-4.3516 7.0938-8.5391 10.98-12.473 11.848 3.8398 29.754-4.2227 24.902-18.691 0.89062-0.44922 1.7969-0.88672 2.7031-1.3008 0.23047 0.14062 0.50391 0.23047 0.83594 0.23047 12.59 0.023437 27.262 1.4883 32.895 14.887 2.4688 5.8984 4.625 16.48 11.547 18.738 8.043 2.6055 8.1523-9.457 7.6055-13.848-1.0859-8.6953-3.8633-16.672-9.4453-23.18 1.4297 0.042969 2.8633 0.023437 4.3516-0.011719 0.10156 0 0.18359-0.023437 0.27344-0.035156 9.1328 3.1602 17.414 8.4688 24.242 15.355 0.13281 0.60938 0.58984 1.1719 1.2539 1.2891 5.6445 6.0273 10.215 13.148 13.324 21.055 4.6641 11.859 5.6484 24.777 5.3594 37.387zm1.3359-25.648c3.8086 12.371 2.5938 25.328 1.3047 38.039 0.24609-4.1211 0.4375-8.2617 0.55859-12.395 0.25391-8.5195-0.18359-17.219-1.8633-25.645zm29.809 23.758c-0.98438 13.473-4.6367 26.699-8.125 39.75-6.4805-0.011718-12.875-0.20703-19.156-1.9492 0.32422-11.156 2-22.32 2.8281-33.402 1.6914-22.539-4.7109-45.641-21.336-61.578 13.699-1.7461 25.859 6.5391 34.574 16.789 9.8828 11.645 12.309 25.516 11.215 40.391z"/>
  <path d="m413.59 222.12c0.47656-3.1094-0.33594-6.6914-2.3672-9.1328-2.1836-2.6055-4.7148-1.0703-6.2656 1.0586-0.67188-0.054688-1.3438 0.27344-1.5352 1.1367-0.73828 3.3477 0.09375 8.2148 2.8828 10.488 3.0781 2.5195 6.7578-0.14844 7.2852-3.5508zm-5.1562-7.2969c0.015625 0 0.035156 0 0.042969 0.011719 0.042969 0.023438 0.066406 0.054688 0.10547 0.078125h-0.24609c0.027344-0.019531 0.0625-0.054687 0.097656-0.089844zm1.0391 8.457c0.011719-0.054688 0.023438-0.11328 0.035157-0.16406 0.085937-0.011719 0.16406-0.035156 0.24219-0.054687-0.089844 0.089844-0.17969 0.16406-0.27734 0.21875z"/>
  <path d="m417.61 241.64c0.76562-3.543-0.24219-6.6602-2.3867-9.3516-0.21875-0.40234-0.46875-0.78906-0.76562-1.1484-1.1758-1.457-3.1914-1.4219-4.8008-0.85156-0.011718 0-0.027344 0.011719-0.042968 0.023438-0.74609 0.066406-1.4727 0.58203-1.5586 1.5195-0.19141 2.1211 0.34766 3.9023 1.3711 5.3477 1.043 2.5703 3.3164 4.543 6.2109 5.5898 0.79297 0.28125 1.793-0.31641 1.9727-1.1289z"/>
  <path d="m424.82 274c-0.59375-2.8672-1.6797-5.5547-3.7812-7.8633-1.1797-1.3008-2.9102 0.11328-2.6758 1.5508 0.30859 1.8594 0.36328 3.6719 0.37109 5.5547 0 0.089844 0.015625 0.17188 0.027343 0.25391-0.20703 1.2148-0.26953 2.4414-0.17969 3.6523-1.0078 5.957-2.8633 11.91-2.0039 17.949 0.55859 3.9023 4.7812 8.8047 9.0898 6.125 3.8516-2.4062 2.4688-10.086 1.9727-13.629-0.63672-4.5156-1.4805-9.1758-2.8203-13.594z"/>
  <path d="m258.16 204.61c0.81641 0.4375 1.5977 0.11719 2.0391-0.46094 0.63281-0.27344 1.0625-0.91797 0.73828-1.7695-2.6328-6.8594-14.934-26.324-23.27-15.125-5.6914 7.6562 16.449 15.203 20.492 17.355zm-13.883-17.336c2.3281 0.35938 4.2852 2.3398 5.8398 3.9492 2.4688 2.5352 4.7383 5.7305 6.4102 9.043-2.0312-0.94141-4.0977-1.8047-6.1055-2.8008-3.1484-1.5391-8.8867-3.8711-10.168-7.4922-0.66797-1.8867 2.7773-2.8828 4.0234-2.6992z"/>
  <path d="m280.22 195.5c0.40234 0.94141 1.2891 1.0078 1.9805 0.60938 0.94141 0.37891 2.2695-0.089844 2.2852-1.4219 0.0625-6.4297 2.2852-23.309-6.0039-25.82-5.2695-1.6055-7.4414 4.3398-6.7891 8.2891 1.1055 6.707 5.8906 12.25 8.5273 18.344zm-1.2734-22.52c3.1992 4.418 2.7891 11.715 2.4805 17.707-1.4844-2.8008-3.1602-5.5234-4.5312-8.3906-1.1719-2.4414-2.2734-5.1406-2.2773-7.8867 0-2.3164 3.0469-3.2031 4.3281-1.4297z"/>
  <path d="m312.2 197.88c0.25391 0.69922 0.91797 1.2148 1.8438 0.90625 4.8398-1.5977 10.914-3.1797 14.105-7.5039 2.418-3.2812 2.3867-9.7891-1.7461-11.867-3.7109-1.8711-7.5781 2.5352-9.5547 5.0742-2.6211 3.3477-5.2344 7.5898-5.6836 11.898-0.09375 0.85938 0.40234 1.3516 1.0352 1.4922zm5.7617-9.4805c1.3203-2.043 3.8906-6.0273 6.6602-6.1875 1.1719-0.066406 1.6016 2.043 1.8125 2.8242 0.61719 2.3398-0.4375 4.1328-2.1211 5.6562-2.6211 2.3867-6.3633 3.5117-9.7539 4.582 0.57031-2.457 2.0977-4.8555 3.4023-6.875z"/>
  <path d="m355.45 278.84c-16.531-2.0234-33.117-0.066406-49.52 2.1328-1.0078 0.12891-1.0234 1.7422 0 1.6055 16.402-2.2109 32.988-4.1562 49.52-2.1445 1.0234 0.13672 1.0117-1.4766 0-1.5938z"/>
  <use x="70" y="644" xlink:href="#v"/>
  <use x="90.550781" y="644" xlink:href="#b"/>
  <use x="104.359375" y="644" xlink:href="#d"/>
  <use x="123.347656" y="644" xlink:href="#c"/>
  <use x="142.242188" y="644" xlink:href="#e"/>
  <use x="155.628906" y="644" xlink:href="#d"/>
  <use x="174.617188" y="644" xlink:href="#l"/>
  <use x="204.410156" y="644" xlink:href="#k"/>
  <use x="224.453125" y="644" xlink:href="#f"/>
  <use x="252.453125" y="644" xlink:href="#j"/>
  <use x="275.433594" y="644" xlink:href="#c"/>
  <use x="294.328125" y="644" xlink:href="#u"/>
  <use x="314.371094" y="644" xlink:href="#c"/>
  <use x="333.265625" y="644" xlink:href="#i"/>
  <use x="359.679688" y="644" xlink:href="#t"/>
  <use x="381.351562" y="644" xlink:href="#b"/>
  <use x="395.15625" y="644" xlink:href="#f"/>
  <use x="413.410156" y="644" xlink:href="#a"/>
  <use x="442.394531" y="644" xlink:href="#h"/>
  <use x="462.914062" y="644" xlink:href="#b"/>
  <use x="476.726562" y="644" xlink:href="#c"/>
  <use x="495.617187" y="644" xlink:href="#i"/>
  <use x="512.285156" y="644" xlink:href="#a"/>
  <use x="531.523437" y="644" xlink:href="#g"/>
  <use x="541.117187" y="644" xlink:href="#a"/>
  <use x="70" y="672" xlink:href="#s"/>
  <use x="82.183594" y="672" xlink:href="#b"/>
  <use x="95.992188" y="672" xlink:href="#a"/>
  <use x="115.226562" y="672" xlink:href="#r"/>
  <use x="154.152344" y="672" xlink:href="#e"/>
  <use x="167.535156" y="672" xlink:href="#q"/>
  <use x="187.46875" y="672" xlink:href="#d"/>
  <use x="216.207031" y="672" xlink:href="#p"/>
  <use x="239.640625" y="672" xlink:href="#a"/>
  <use x="258.878906" y="672" xlink:href="#o"/>
  <use x="278.8125" y="672" xlink:href="#n"/>
  <use x="308.492188" y="672" xlink:href="#h"/>
  <use x="329.015625" y="672" xlink:href="#b"/>
  <use x="342.820312" y="672" xlink:href="#a"/>
  <use x="362.058594" y="672" xlink:href="#g"/>
  <use x="371.65625" y="672" xlink:href="#d"/>
  <use x="390.648438" y="672" xlink:href="#m"/>
  <use x="407.242188" y="672" xlink:href="#e"/>
 </g>
</svg>
