<?xml version="1.0" encoding="UTF-8"?>
<svg width="700pt" height="700pt" version="1.1" viewBox="0 0 700 700" xmlns="http://www.w3.org/2000/svg" xmlns:xlink="http://www.w3.org/1999/xlink">
 <defs>
  <symbol id="v" overflow="visible">
   <path d="m18.766-1.125c-0.96875 0.5-1.9805 0.875-3.0312 1.125-1.043 0.25781-2.1367 0.39062-3.2812 0.39062-3.3984 0-6.0898-0.94531-8.0781-2.8438-1.9922-1.9062-2.9844-4.4844-2.9844-7.7344 0-3.2578 0.99219-5.8359 2.9844-7.7344 1.9883-1.9062 4.6797-2.8594 8.0781-2.8594 1.1445 0 2.2383 0.13281 3.2812 0.39062 1.0508 0.25 2.0625 0.625 3.0312 1.125v4.2188c-0.98047-0.65625-1.9453-1.1406-2.8906-1.4531-0.94922-0.3125-1.9492-0.46875-3-0.46875-1.875 0-3.3516 0.60547-4.4219 1.8125-1.0742 1.1992-1.6094 2.8555-1.6094 4.9688 0 2.1055 0.53516 3.7617 1.6094 4.9688 1.0703 1.1992 2.5469 1.7969 4.4219 1.7969 1.0508 0 2.0508-0.14844 3-0.45312 0.94531-0.3125 1.9102-0.80078 2.8906-1.4688z"/>
  </symbol>
  <symbol id="b" overflow="visible">
   <path d="m13.734-11.141c-0.4375-0.19531-0.87109-0.34375-1.2969-0.4375-0.41797-0.10156-0.83984-0.15625-1.2656-0.15625-1.2617 0-2.2305 0.40625-2.9062 1.2188-0.67969 0.80469-1.0156 1.9531-1.0156 3.4531v7.0625h-4.8906v-15.312h4.8906v2.5156c0.625-1 1.3438-1.7266 2.1562-2.1875 0.82031-0.46875 1.8008-0.70312 2.9375-0.70312 0.16406 0 0.34375 0.011719 0.53125 0.03125 0.19531 0.011719 0.47656 0.039062 0.84375 0.078125z"/>
  </symbol>
  <symbol id="d" overflow="visible">
   <path d="m17.641-7.7031v1.4062h-11.453c0.125 1.1484 0.53906 2.0078 1.25 2.5781 0.70703 0.57422 1.7031 0.85938 2.9844 0.85938 1.0312 0 2.082-0.14844 3.1562-0.45312 1.082-0.3125 2.1914-0.77344 3.3281-1.3906v3.7656c-1.1562 0.4375-2.3125 0.76562-3.4688 0.98438-1.1562 0.22656-2.3125 0.34375-3.4688 0.34375-2.7734 0-4.9297-0.70312-6.4688-2.1094-1.5312-1.4062-2.2969-3.3789-2.2969-5.9219 0-2.5 0.75391-4.4609 2.2656-5.8906 1.5078-1.4375 3.582-2.1562 6.2188-2.1562 2.4062 0 4.332 0.73047 5.7812 2.1875 1.4453 1.4492 2.1719 3.3828 2.1719 5.7969zm-5.0312-1.625c0-0.92578-0.27344-1.6719-0.8125-2.2344-0.54297-0.57031-1.25-0.85938-2.125-0.85938-0.94922 0-1.7188 0.26562-2.3125 0.79688s-0.96484 1.2969-1.1094 2.2969z"/>
  </symbol>
  <symbol id="c" overflow="visible">
   <path d="m9.2188-6.8906c-1.0234 0-1.793 0.17188-2.3125 0.51562-0.51172 0.34375-0.76562 0.85547-0.76562 1.5312 0 0.625 0.20703 1.1172 0.625 1.4688 0.41406 0.34375 0.98828 0.51562 1.7188 0.51562 0.92578 0 1.7031-0.32812 2.3281-0.98438 0.63281-0.66406 0.95312-1.4922 0.95312-2.4844v-0.5625zm7.4688-1.8438v8.7344h-4.9219v-2.2656c-0.65625 0.92969-1.3984 1.6055-2.2188 2.0312-0.82422 0.41406-1.8242 0.625-3 0.625-1.5859 0-2.8711-0.45703-3.8594-1.375-0.99219-0.92578-1.4844-2.1289-1.4844-3.6094 0-1.7891 0.61328-3.1016 1.8438-3.9375 1.2383-0.84375 3.1797-1.2656 5.8281-1.2656h2.8906v-0.39062c0-0.76953-0.30859-1.332-0.92188-1.6875-0.61719-0.36328-1.5703-0.54688-2.8594-0.54688-1.0547 0-2.0312 0.10547-2.9375 0.3125-0.89844 0.21094-1.7305 0.52344-2.5 0.9375v-3.7344c1.0391-0.25 2.0859-0.44141 3.1406-0.57812 1.0625-0.13281 2.125-0.20312 3.1875-0.20312 2.7578 0 4.75 0.54688 5.9688 1.6406 1.2266 1.0859 1.8438 2.8555 1.8438 5.3125z"/>
  </symbol>
  <symbol id="e" overflow="visible">
   <path d="m7.7031-19.656v4.3438h5.0469v3.5h-5.0469v6.5c0 0.71094 0.14062 1.1875 0.42188 1.4375s0.83594 0.375 1.6719 0.375h2.5156v3.5h-4.1875c-1.9375 0-3.3125-0.39844-4.125-1.2031-0.80469-0.8125-1.2031-2.1797-1.2031-4.1094v-6.5h-2.4219v-3.5h2.4219v-4.3438z"/>
  </symbol>
  <symbol id="l" overflow="visible">
   <path d="m12.766-13.078v-8.2031h4.9219v21.281h-4.9219v-2.2188c-0.66797 0.90625-1.4062 1.5703-2.2188 1.9844s-1.7578 0.625-2.8281 0.625c-1.8867 0-3.4336-0.75-4.6406-2.25-1.2109-1.5-1.8125-3.4258-1.8125-5.7812 0-2.3633 0.60156-4.2969 1.8125-5.7969 1.207-1.5 2.7539-2.25 4.6406-2.25 1.0625 0 2 0.21484 2.8125 0.64062 0.82031 0.42969 1.5664 1.0859 2.2344 1.9688zm-3.2188 9.9219c1.0391 0 1.8359-0.37891 2.3906-1.1406 0.55078-0.76953 0.82812-1.8828 0.82812-3.3438 0-1.457-0.27734-2.5664-0.82812-3.3281-0.55469-0.76953-1.3516-1.1562-2.3906-1.1562-1.043 0-1.8398 0.38672-2.3906 1.1562-0.55469 0.76172-0.82812 1.8711-0.82812 3.3281 0 1.4609 0.27344 2.5742 0.82812 3.3438 0.55078 0.76172 1.3477 1.1406 2.3906 1.1406z"/>
  </symbol>
  <symbol id="k" overflow="visible">
   <path d="m10.5-3.1562c1.0508 0 1.8516-0.37891 2.4062-1.1406 0.55078-0.76953 0.82812-1.8828 0.82812-3.3438 0-1.457-0.27734-2.5664-0.82812-3.3281-0.55469-0.76953-1.3555-1.1562-2.4062-1.1562-1.0547 0-1.8594 0.38672-2.4219 1.1562-0.55469 0.77344-0.82812 1.8828-0.82812 3.3281 0 1.4492 0.27344 2.5586 0.82812 3.3281 0.5625 0.77344 1.3672 1.1562 2.4219 1.1562zm-3.25-9.9219c0.67578-0.88281 1.4219-1.5391 2.2344-1.9688 0.82031-0.42578 1.7656-0.64062 2.8281-0.64062 1.8945 0 3.4453 0.75 4.6562 2.25 1.207 1.5 1.8125 3.4336 1.8125 5.7969 0 2.3555-0.60547 4.2812-1.8125 5.7812-1.2109 1.5-2.7617 2.25-4.6562 2.25-1.0625 0-2.0078-0.21094-2.8281-0.625-0.8125-0.42578-1.5586-1.0859-2.2344-1.9844v2.2188h-4.8906v-21.281h4.8906z"/>
  </symbol>
  <symbol id="f" overflow="visible">
   <path d="m0.34375-15.312h4.8906l4.125 10.391 3.5-10.391h4.8906l-6.4375 16.766c-0.64844 1.6953-1.4023 2.8828-2.2656 3.5625-0.86719 0.6875-2 1.0312-3.4062 1.0312h-2.8438v-3.2188h1.5312c0.83203 0 1.4375-0.13672 1.8125-0.40625 0.38281-0.26172 0.67969-0.73047 0.89062-1.4062l0.14062-0.42188z"/>
  </symbol>
  <symbol id="j" overflow="visible">
   <path d="m20.922-1.5156c-1.3125 0.63672-2.6797 1.1172-4.0938 1.4375-1.4062 0.3125-2.8672 0.46875-4.375 0.46875-3.3984 0-6.0898-0.94531-8.0781-2.8438-1.9922-1.9062-2.9844-4.4844-2.9844-7.7344 0-3.2891 1.0078-5.8789 3.0312-7.7656 2.0312-1.8828 4.8047-2.8281 8.3281-2.8281 1.3516 0 2.6484 0.13281 3.8906 0.39062 1.25 0.25 2.4258 0.625 3.5312 1.125v4.2188c-1.1484-0.64453-2.2812-1.125-3.4062-1.4375-1.125-0.32031-2.25-0.48438-3.375-0.48438-2.1055 0-3.7266 0.58984-4.8594 1.7656-1.125 1.168-1.6875 2.8398-1.6875 5.0156 0 2.1562 0.54688 3.8242 1.6406 5 1.0938 1.1797 2.6445 1.7656 4.6562 1.7656 0.53906 0 1.0469-0.03125 1.5156-0.09375 0.47656-0.070313 0.89844-0.17969 1.2656-0.32812v-3.9688h-3.2031v-3.5156h8.2031z"/>
  </symbol>
  <symbol id="u" overflow="visible">
   <path d="m12.766-2.5938c-0.66797 0.88672-1.4062 1.543-2.2188 1.9688-0.8125 0.41797-1.7578 0.625-2.8281 0.625-1.8672 0-3.4062-0.73438-4.625-2.2031-1.2188-1.4766-1.8281-3.3516-1.8281-5.625 0-2.2891 0.60938-4.1641 1.8281-5.625 1.2188-1.4688 2.7578-2.2031 4.625-2.2031 1.0703 0 2.0156 0.21484 2.8281 0.64062 0.8125 0.41797 1.5508 1.0742 2.2188 1.9688v-2.2656h4.9219v13.766c0 2.457-0.77734 4.3359-2.3281 5.6406-1.5547 1.3008-3.8086 1.9531-6.7656 1.9531-0.94922 0-1.8711-0.074219-2.7656-0.21875-0.89844-0.14844-1.7969-0.37109-2.7031-0.67188v-3.8125c0.86328 0.48828 1.7031 0.85156 2.5156 1.0938 0.82031 0.23828 1.6484 0.35938 2.4844 0.35938 1.6016 0 2.7734-0.35156 3.5156-1.0469 0.75-0.69922 1.125-1.7969 1.125-3.2969zm-3.2188-9.5312c-1.0117 0-1.8047 0.375-2.375 1.125-0.5625 0.74219-0.84375 1.7969-0.84375 3.1719 0 1.3984 0.26953 2.4609 0.8125 3.1875 0.55078 0.71875 1.3516 1.0781 2.4062 1.0781 1.0195 0 1.8125-0.36719 2.375-1.1094 0.5625-0.75 0.84375-1.8008 0.84375-3.1562 0-1.375-0.28125-2.4297-0.84375-3.1719-0.5625-0.75-1.3555-1.125-2.375-1.125z"/>
  </symbol>
  <symbol id="i" overflow="visible">
   <path d="m14.312-14.828v3.7188c-1.043-0.4375-2.0547-0.76562-3.0312-0.98438-0.98047-0.21875-1.9023-0.32812-2.7656-0.32812-0.92969 0-1.6211 0.11719-2.0781 0.34375-0.44922 0.23047-0.67188 0.58984-0.67188 1.0781 0 0.38672 0.17188 0.68359 0.51562 0.89062 0.34375 0.21094 0.95703 0.36719 1.8438 0.46875l0.85938 0.125c2.5078 0.32422 4.1953 0.85156 5.0625 1.5781 0.86328 0.73047 1.2969 1.8711 1.2969 3.4219 0 1.6367-0.60547 2.8672-1.8125 3.6875-1.1992 0.8125-2.9922 1.2188-5.375 1.2188-1.0234 0-2.0742-0.078125-3.1562-0.23438-1.0742-0.15625-2.1797-0.39453-3.3125-0.71875v-3.7188c0.96875 0.48047 1.9609 0.83984 2.9844 1.0781 1.0312 0.23047 2.0781 0.34375 3.1406 0.34375 0.95703 0 1.6758-0.12891 2.1562-0.39062 0.47656-0.26953 0.71875-0.66406 0.71875-1.1875 0-0.4375-0.16797-0.75781-0.5-0.96875-0.33594-0.21875-0.99609-0.38281-1.9844-0.5l-0.85938-0.10938c-2.1797-0.26953-3.7031-0.77344-4.5781-1.5156-0.875-0.73828-1.3125-1.8594-1.3125-3.3594 0-1.625 0.55078-2.8281 1.6562-3.6094 1.1133-0.78906 2.8203-1.1875 5.125-1.1875 0.89453 0 1.8359 0.074219 2.8281 0.21875 1 0.13672 2.082 0.35156 3.25 0.64062z"/>
  </symbol>
  <symbol id="t" overflow="visible">
   <path d="m14.953-3.7188h-8.2188l-1.3125 3.7188h-5.2812l7.5625-20.406h6.2656l7.5625 20.406h-5.2812zm-6.9062-3.7812h5.5781l-2.7812-8.125z"/>
  </symbol>
  <symbol id="a" overflow="visible">
   <path d="m9.6406-12.188c-1.0859 0-1.9141 0.39062-2.4844 1.1719-0.57422 0.78125-0.85938 1.9062-0.85938 3.375s0.28516 2.5938 0.85938 3.375c0.57031 0.77344 1.3984 1.1562 2.4844 1.1562 1.0625 0 1.875-0.38281 2.4375-1.1562 0.57031-0.78125 0.85938-1.9062 0.85938-3.375s-0.28906-2.5938-0.85938-3.375c-0.5625-0.78125-1.375-1.1719-2.4375-1.1719zm0-3.5c2.6328 0 4.6914 0.71484 6.1719 2.1406 1.4766 1.418 2.2188 3.3867 2.2188 5.9062 0 2.5117-0.74219 4.4805-2.2188 5.9062-1.4805 1.418-3.5391 2.125-6.1719 2.125-2.6484 0-4.7148-0.70703-6.2031-2.125-1.4922-1.4258-2.2344-3.3945-2.2344-5.9062 0-2.5195 0.74219-4.4883 2.2344-5.9062 1.4883-1.4258 3.5547-2.1406 6.2031-2.1406z"/>
  </symbol>
  <symbol id="h" overflow="visible">
   <path d="m2.5781-20.406h8.7344c2.5938 0 4.582 0.57812 5.9688 1.7344 1.3945 1.1484 2.0938 2.7891 2.0938 4.9219 0 2.1367-0.69922 3.7812-2.0938 4.9375-1.3867 1.1562-3.375 1.7344-5.9688 1.7344h-3.4844v7.0781h-5.25zm5.25 3.8125v5.7031h2.9219c1.0195 0 1.8047-0.25 2.3594-0.75 0.5625-0.5 0.84375-1.2031 0.84375-2.1094 0-0.91406-0.28125-1.6172-0.84375-2.1094-0.55469-0.48828-1.3398-0.73438-2.3594-0.73438z"/>
  </symbol>
  <symbol id="g" overflow="visible">
   <path d="m2.3594-15.312h4.8906v15.031c0 2.0508-0.49609 3.6172-1.4844 4.7031-0.98047 1.082-2.4062 1.625-4.2812 1.625h-2.4219v-3.2188h0.85938c0.92578 0 1.5625-0.21094 1.9062-0.625 0.35156-0.41797 0.53125-1.2461 0.53125-2.4844zm0-5.9688h4.8906v4h-4.8906z"/>
  </symbol>
  <symbol id="s" overflow="visible">
   <path d="m12.422-21.281v3.2188h-2.7031c-0.6875 0-1.1719 0.125-1.4531 0.375-0.27344 0.25-0.40625 0.6875-0.40625 1.3125v1.0625h4.1875v3.5h-4.1875v11.812h-4.8906v-11.812h-2.4375v-3.5h2.4375v-1.0625c0-1.6641 0.46094-2.8984 1.3906-3.7031 0.92578-0.80078 2.3672-1.2031 4.3281-1.2031z"/>
  </symbol>
  <symbol id="r" overflow="visible">
   <path d="m16.547-12.766c0.61328-0.94531 1.3477-1.6719 2.2031-2.1719 0.85156-0.5 1.7891-0.75 2.8125-0.75 1.7578 0 3.0977 0.54688 4.0156 1.6406 0.92578 1.0859 1.3906 2.6562 1.3906 4.7188v9.3281h-4.9219v-7.9844-0.35938c0.007813-0.13281 0.015625-0.32031 0.015625-0.5625 0-1.082-0.16406-1.8633-0.48438-2.3438-0.3125-0.48828-0.82422-0.73438-1.5312-0.73438-0.92969 0-1.6484 0.38672-2.1562 1.1562-0.51172 0.76172-0.77344 1.8672-0.78125 3.3125v7.5156h-4.9219v-7.9844c0-1.6953-0.14844-2.7852-0.4375-3.2656-0.29297-0.48828-0.8125-0.73438-1.5625-0.73438-0.9375 0-1.6641 0.38672-2.1719 1.1562-0.51172 0.76172-0.76562 1.8594-0.76562 3.2969v7.5312h-4.9219v-15.312h4.9219v2.2344c0.60156-0.86328 1.2891-1.5156 2.0625-1.9531 0.78125-0.4375 1.6406-0.65625 2.5781-0.65625 1.0625 0 2 0.25781 2.8125 0.76562 0.8125 0.51172 1.4258 1.2305 1.8438 2.1562z"/>
  </symbol>
  <symbol id="q" overflow="visible">
   <path d="m17.75-9.3281v9.3281h-4.9219v-7.1094c0-1.3438-0.03125-2.2656-0.09375-2.7656s-0.16797-0.86719-0.3125-1.1094c-0.1875-0.3125-0.44922-0.55469-0.78125-0.73438-0.32422-0.17578-0.69531-0.26562-1.1094-0.26562-1.0234 0-1.8242 0.39844-2.4062 1.1875-0.58594 0.78125-0.875 1.8711-0.875 3.2656v7.5312h-4.8906v-21.281h4.8906v8.2031c0.73828-0.88281 1.5195-1.5391 2.3438-1.9688 0.83203-0.42578 1.75-0.64062 2.75-0.64062 1.7695 0 3.1133 0.54688 4.0312 1.6406 0.91406 1.0859 1.375 2.6562 1.375 4.7188z"/>
  </symbol>
  <symbol id="p" overflow="visible">
   <path d="m2.5781-20.406h5.875l7.4219 14v-14h4.9844v20.406h-5.875l-7.4219-14v14h-4.9844z"/>
  </symbol>
  <symbol id="o" overflow="visible">
   <path d="m2.1875-5.9688v-9.3438h4.9219v1.5312c0 0.83594-0.007813 1.875-0.015625 3.125-0.011719 1.25-0.015625 2.0859-0.015625 2.5 0 1.2422 0.03125 2.1328 0.09375 2.6719 0.070313 0.54297 0.17969 0.93359 0.32812 1.1719 0.20703 0.32422 0.47266 0.57422 0.79688 0.75 0.32031 0.16797 0.69141 0.25 1.1094 0.25 1.0195 0 1.8203-0.39062 2.4062-1.1719 0.58203-0.78125 0.875-1.8672 0.875-3.2656v-7.5625h4.8906v15.312h-4.8906v-2.2188c-0.74219 0.89844-1.5234 1.5586-2.3438 1.9844-0.82422 0.41406-1.7344 0.625-2.7344 0.625-1.7617 0-3.1055-0.53906-4.0312-1.625-0.92969-1.082-1.3906-2.6602-1.3906-4.7344z"/>
  </symbol>
  <symbol id="n" overflow="visible">
   <path d="m17.75-9.3281v9.3281h-4.9219v-7.1406c0-1.3203-0.03125-2.2344-0.09375-2.7344s-0.16797-0.86719-0.3125-1.1094c-0.1875-0.3125-0.44922-0.55469-0.78125-0.73438-0.32422-0.17578-0.69531-0.26562-1.1094-0.26562-1.0234 0-1.8242 0.39844-2.4062 1.1875-0.58594 0.78125-0.875 1.8711-0.875 3.2656v7.5312h-4.8906v-15.312h4.8906v2.2344c0.73828-0.88281 1.5195-1.5391 2.3438-1.9688 0.83203-0.42578 1.75-0.64062 2.75-0.64062 1.7695 0 3.1133 0.54688 4.0312 1.6406 0.91406 1.0859 1.375 2.6562 1.375 4.7188z"/>
  </symbol>
  <symbol id="m" overflow="visible">
   <path d="m14.719-14.828v3.9844c-0.65625-0.45703-1.3242-0.79688-2-1.0156-0.66797-0.21875-1.3594-0.32812-2.0781-0.32812-1.3672 0-2.4336 0.40234-3.2031 1.2031-0.76172 0.79297-1.1406 1.9062-1.1406 3.3438 0 1.4297 0.37891 2.543 1.1406 3.3438 0.76953 0.79297 1.8359 1.1875 3.2031 1.1875 0.75781 0 1.4844-0.10938 2.1719-0.32812 0.6875-0.22656 1.3203-0.56641 1.9062-1.0156v4c-0.76172 0.28125-1.5391 0.48828-2.3281 0.625-0.78125 0.14453-1.5742 0.21875-2.375 0.21875-2.7617 0-4.9219-0.70703-6.4844-2.125-1.5547-1.4141-2.3281-3.3828-2.3281-5.9062 0-2.5312 0.77344-4.5039 2.3281-5.9219 1.5625-1.4141 3.7227-2.125 6.4844-2.125 0.80078 0 1.5938 0.074219 2.375 0.21875 0.78125 0.13672 1.5547 0.35156 2.3281 0.64062z"/>
  </symbol>
 </defs>
 <g>
  <path d="m304.77 303.45c4.7148 1.8047 9.3086-1.9375 12.398-5.0117 1.4688-1.457-0.80078-3.7188-2.2617-2.2617-3.3828 3.3594-6.8828 5.8984-11.414 3.0859-3.2539-2.0234-5.7227-5.7109-8.0938-8.6289-1.3008-1.6055-3.5547 0.67578-2.2617 2.2617 3.2891 4.0547 6.5898 8.6172 11.633 10.555z"/>
  <path d="m301.35 309.88c0.46094-0.58203 0.61719-1.4453 0.023438-2.1797-5.5703-6.8359-11.777-17.785-21.594-18.691-8.793-0.8125-11.184 6.3672-9.6836 13.848 0.125 0.62109 0.50781 0.97266 0.96875 1.1016 6.0156 7.9648 20.031 6.4727 28.758 7.332 1.0039 0.09375 1.5117-0.62109 1.5273-1.4102zm-17.734-2.8242c0.49219 0.011718 0.99219-0.011719 1.5117-0.078125 0.49219 0.14062 0.99219 0.27344 1.4609 0.41406 0.078125 0.023438 0.14453 0.023438 0.21875 0.035157 0 0.011718-0.011719 0.023437-0.011719 0.035156-1.0781-0.097656-2.1367-0.23047-3.1797-0.40625zm4.6055-4.0977c-2.0312-0.10156-2.8828-1.6055-3.2266-3.3359 0.33984-0.48047 0.81641-0.90625 1.2773-1.2695 0.23437-0.011719 0.48047 0.011719 0.74609 0.078125 0.25391 0.054687 0.49219 0.054687 0.70703 0.011718 0.45313 1.4844 0.62891 3.0039 0.49609 4.5156zm-7.1367-2.0039c-0.15234-0.042969-0.30859-0.066406-0.46094-0.078125 0.054688-0.16406 0.11328-0.33203 0.16797-0.49219 0.10156 0.1875 0.19922 0.38281 0.29297 0.57031zm10.266-0.80859c2.1797 2.4805 4.1484 5.1953 6.1602 7.7891-2.1836-0.10156-4.6602-0.11719-7.2109-0.24219 1.0664-2.418 1.3789-5 1.0508-7.5469zm-18.316 1.0703c-0.53125-2.9531-0.72266-6.3789 1.9492-8.3672 2.2969-1.707 5.4609-0.90625 8.125 0.46094-3.9141 1.3984-6.0078 6.7578-6.5312 11.387-1.457-0.875-2.6641-2.0117-3.543-3.4805z"/>
  <path d="m314.56 310.33c0.25391 0.27344 0.59766 0.48047 1.0547 0.53906 13.551 1.6641 28.426 0.15234 28.918-16.535 0.027344-0.94141-0.60938-1.4453-1.3203-1.5273-0.17188-0.18359-0.40234-0.34766-0.69922-0.4375-12.66-3.9922-22.406 6.2422-29.133 15.676-0.78906 1.0938 0.12891 2.1484 1.1797 2.2852zm19.219-9.8672c-0.023438-0.23047-0.042969-0.46094-0.078125-0.6875 0.17188 0.57031 0.29297 1.1484 0.32031 1.7188-0.078126-0.35156-0.15234-0.6875-0.24219-1.0312zm-9.207 0.10156c2.1719 0.33984 3.6562 1.1602 4.4922 2.9844-0.60547 0.33203-1.2773 0.53906-1.9258 0.75781-0.15625 0.054687-0.29297 0.12891-0.41016 0.20703-1.0469-1.0078-1.7812-2.4688-2.168-3.9492h0.011719zm16.699-5.2305c-0.35938 4.7812-2.2188 7.8945-4.9688 9.8672 1.6406-3.0742 0.66797-7.2422-1.4766-10.359 2.0391-0.28125 4.1914-0.16406 6.4453 0.49219zm-19.438 7.2656c0.87891 2.4062 2.5352 4.4844 4.6523 5.5781-2.9453 0.18359-6.0547 0.011719-9.0508-0.30859 1.3438-1.793 2.8164-3.5977 4.3984-5.2695z"/>
  <path d="m334.81 313.93c-0.33594-0.50391-0.92969-0.83984-1.6914-0.65625-6.332 1.5-20.781 10.457-23.312 0.78906-0.011719-0.066406-0.035157-0.12891-0.042969-0.19531 0.10156-0.035157 0.20312-0.035157 0.30859-0.066407 0.34766-0.11328 0.59375-0.29688 0.78516-0.51562 1.0039-0.21875 1.793-1.2266 1.0312-2.2617-1.1328-1.5195-2.5039-2.9609-4.5352-2.9727-1.9922-0.023437-3.3828 1.8125-4.207 3.3984-0.69531 1.3203 0.55469 2.5273 1.6641 2.4062 0.58203 0.11719 1.1719 0.20703 1.7578 0.25391 0.085938 0.39062 0.17188 0.75781 0.27344 1.1016 0.23047 1.4219 0.027344 2.8125-1.4688 3.4219-2.1992 0.91797-5.0977 0.29688-7.332-0.12891-4.3633-0.85156-8.5625-2.4531-12.73-3.9492-0.95703-0.33984-1.6367 0.21875-1.8633 0.97266-0.36328 0.67578-0.28125 1.5273 0.62891 1.9492 9.6992 4.4531 13.512 13.418 16.832 22.836-0.042969 0.10156-0.074219 0.20703-0.09375 0.33203-0.011719 0.066407-0.027344 0.12891-0.027344 0.19531 0 0.011718-0.003906 0.011718-0.003906 0.023437-0.54688 11.109 19.344 12.336 19.852 1.2812 0.035157-0.75781-0.36328-1.2266-0.90234-1.4336-0.39844-9.8672 9.582-17.41 15.371-24.328 0.71484-0.85547 0.37891-1.9219-0.29297-2.4531zm-12.812 9.25c-0.39844-0.86328-0.81641-1.7188-1.2617-2.5703 0.80078-0.20703 1.5977-0.44922 2.4062-0.69922-0.38281 1.0938-0.76562 2.1914-1.1445 3.2695zm-21.023-1.4102c-0.97266 0.96484-1.8242 2.0117-2.5703 3.1602-0.42578-1.1914-0.79688-2.3984-1.082-3.6289 1.2422 0.21875 2.4688 0.37891 3.6523 0.46875zm-6.9766-1.0586c-0.042969-0.054688-0.10156-0.11328-0.14453-0.15234 0.054688 0.011718 0.10547 0.023437 0.15625 0.035156-0.007812 0.039062-0.007812 0.074219-0.011718 0.11719zm11.391 23.809c3.6289 1.1719 7.7344 0.30859 11.621-0.65625-1.7852 3.6836-8.6367 3.707-11.621 0.65625zm11.137-3.8398c-4.0195 1.0312-8.6914 2.3867-12.195-0.25391-1.3555-3.8789-2.7891-7.7344-4.5938-11.289 0.87891-2.1445 2.207-3.9922 3.8633-5.543 0.27344 0.035156 0.57031 0 0.86719-0.14062 3.9609-1.8242 8.9102-1.8945 12.719 0.33203 1.2656 1.5117 2.2695 3.2031 2.8633 5.1172 0.011719 0.035156 0.035156 0.066406 0.042969 0.10156-2.2891 3.5625-3.7695 7.4102-3.5664 11.676z"/>
  <path d="m308.09 329.33c0.35938 2.2617 0.37109 4.5469 0.37109 6.8359 0 2.0547 3.2031 2.0547 3.2031 0 0-2.5938-0.089843-5.1289-0.48828-7.6875-0.3125-2.0391-3.3984-1.1758-3.0859 0.85156z"/>
  <path d="m497.18 125.64c-0.13281-0.44922-0.45313-0.83984-0.99609-1.0547-6.1602-2.3633-13.531-0.37109-19.539-2.7773 0.11328-0.49219 0.26172-0.95312 0.60938-1.3789 1.1094-1.332-0.30859-3.5352-1.9414-2.5156-2.6836 1.6758-5.5547 3.5117-8.6914 4.1875v-1.0938c0-1.0312-1.0312-1.8477-2.0234-1.5508-1.6523 0.50391-3.1758 1.25-4.7031 2.043-1.7422 0.90625-3.5625 2.0312-5.2656 0.50391-0.61719-0.54688-1.3477-0.50391-1.9102-0.18359-0.22266 0.11719-0.42969 0.27344-0.60547 0.51563-1.2227 1.6406-2.6641 3.1797-4.4922 4.1445-1.5273 0.8125-2.1992-0.40234-2.5586-1.6953 0.72266-1.2891-0.50781-2.4688-1.6289-2.3633-0.875 0-1.8125 0.6875-1.7461 1.7578-1.8438 2.9727-4.0703 5.6328-5.6719 8.6875-0.10547-0.78906-0.125-1.5977-0.125-2.4688-0.003906-2.0664-3.207-2.0664-3.2031 0 0 0.035156 0.003906 0.066406 0.003906 0.11328-1.6016 3.4883-2.5195 7.3086-3.8867 10.891-0.67188 1.7695-1.4453 3.7734-2.7773 5.1758-0.64844 0.67578-1.3477-0.28516-1.8594-1.3008 0.042969-0.26172 0.089843-0.52734 0.14062-0.78906 0.28516-1.4688-1.2695-2.3203-2.2891-1.8945-1.0625-0.11328-2.1719 0.66797-1.6523 1.8945 0.15234 0.35938 0.32031 0.75781 0.5 1.1484-0.46094 2.6875-0.90625 5.4141-1.9141 7.9297-0.55469-0.6875-1.0586-1.3984-1.5234-2.1562-0.039063-0.089844-0.089844-0.16406-0.14453-0.24219-0.12891-0.21875-0.26172-0.4375-0.38672-0.65625-0.98047-1.8125-3.7422-0.20703-2.7617 1.6172 0.054687 0.11328 0.12891 0.20703 0.19141 0.32031-0.46875 5.1055 0.71094 10.098 0.875 15.16-1.0039-0.51562-1.9609-1.1133-2.8555-1.8125-0.25781-0.83984-0.98438-1.1602-1.6758-1.0703-1.3555-0.20703-2.6758 1.5273-1.4102 2.6719 0.09375 0.089843 0.19141 0.15234 0.28516 0.23047 1.5977 5.4258 3.8516 10.871 4.0195 16.535-0.18359-0.11328-0.37891-0.23047-0.57031-0.33984-0.27344-0.37891-0.66797-0.58984-1.082-0.65625-1.6797-0.89453-3.1484 1.7422-1.4766 2.832 0.035156 0.023438 0.0625 0.042969 0.09375 0.066406 0.76172 2 1.3281 4.1211 1.5586 6.2539-0.73438-0.078124-1.457-0.23047-2.1719-0.54687-1.8711-0.81641-3.5 1.9375-1.6133 2.7656 0.17187 0.078126 0.34766 0.12891 0.52734 0.19531-0.035156 0.29688 0.011719 0.60938 0.17969 0.94141 1.6055 3.0977 3.7461 5.9297 5.2969 9.043-0.30859-0.10156-0.61719-0.19531-0.92969-0.30859-1.9727-0.63281-2.8125 2.457-0.85156 3.0977 0.21875 0.066407 0.4375 0.12891 0.65625 0.20703 0.83984 1.3672 1.3789 2.9023 1.9883 4.4062-0.59766-0.10156-1.1992-0.26172-1.793-0.44922-1.6055-0.51562-2.457 1.4336-1.6641 2.5156 0.027344 0.23047 0.11328 0.46094 0.28516 0.6875 1.6055 2.2305 3.3477 4.375 5.0195 6.5508h-0.65625c-1.707 0-1.9922 2.1992-0.875 2.9531 0.054688 0.066406 0.10547 0.14062 0.17188 0.20703 1.5 1.5273 2.8281 3.2148 4.1328 4.9102-0.050781 0-0.10547 0.011718-0.15234 0.011718-0.66016-0.17187-1.25 0.19531-1.5586 0.77734-0.50781 0.8125-0.30078 2.0312 0.62891 2.375 1.7266 1.2695 3.3047 2.6992 4.7891 4.2344-0.77734 0.26172-1.1016 1.082-0.97266 1.8125-0.050782 0.41406 0.054687 0.85156 0.38672 1.25 1.6016 1.9023 3.0312 3.9609 3.9219 6.2422-0.50391-0.11719-1.0078-0.23047-1.5195-0.37891-1.9805-0.57031-2.8281 2.5273-0.84375 3.0859 0.10156 0.035156 0.19531 0.054688 0.29688 0.078125 0.011719 0.023437 0.023438 0.035156 0.027344 0.042969 1.0742 1.6289 2.1211 3.543 1.6523 5.5547-0.46484 1.9609-2.8281 2.2852-4.6211 2.2969-1.1016-1.2891-2.3867-2.2188-3.7617-3.1094 0.10547-0.11328 0.20312-0.23047 0.28125-0.35938 0.50391-0.85156 0.28125-2.2109-0.42188-2.9102-0.77734-0.76562-2.6367-0.91797-3.6562-1.25-0.72656-0.24219-1.4492-0.49219-2.1719-0.71094 0.19531-0.24219 0.375-0.48047 0.52734-0.80078 0.45312-0.94141 0.09375-2.0234-0.95312-2.3516-3.0312-0.92969-6.1484-1.2148-9.2734-1.4766 0.94531-0.8125 0.76172-2.418-0.54688-2.7891-3.0234-0.85156-6.082-1.5195-9.2109-1.6953-2-1.4883-4.0195-2.1797-6.6094-2.1016-1.1094 0.035156-2.1797 0.20703-3.2305 0.37891-0.27344-0.011719-0.55859 0.035156-0.81641 0.12891-0.98438 0.15234-1.9648 0.28516-2.9609 0.25391-0.16797-0.16406-0.375-0.29688-0.64453-0.37891-5.2266-1.7422-10.008-0.16406-15.02 1.2617-4.793-1.2812-10.965-2.3281-13.887 2.1445-1.2812-0.25391-2.5977-0.25391-3.8477 0.23047-1.5117 0.58984-2.5039 1.7422-3.2305 3.0977-2.7812-0.23047-5.1914 0.53906-7.5078 2.1562-2.6758 1.8711-4.6719 3.9258-8.1602 3.8594-0.82422-0.011719-1.3086 0.49219-1.4844 1.0938-0.88672 0.72266-1.25 1.7422-1.0586 2.9023-3.3828 0.49219-6.3633 2.2734-7.9805 5.3359-3.8711 0.11719-6.8086 2.5039-8.0039 6.4609-4.8594 2.0898-4.4688 7.5273-4.8477 12.281-0.003906 0.023438 0 0.042969 0 0.066406-0.73437 0.035156-1.4688 0.054688-2.1914 0.066406-11.762 0.18359-22.73 0.75781-33.164 6.793-9.793 5.668-15.863 15.586-19.668 25.945-0.52734 1.4453 1.2148 2.3516 2.3516 1.8047 4.4648-2.1445 8.125-5.1953 11.793-8.3672-0.97266 3.1797-1.7812 6.3906-2.1914 9.625-6.4219 0.64453-12.824 1.5859-19.168 2.9961-1.0078 0.21875-0.58203 1.7578 0.42578 1.5391 6.1484-1.3672 12.348-2.2852 18.57-2.918-0.085937 1.0586-0.11719 2.1094-0.10156 3.168-6.0273 1.1914-12.039 2.4297-18.047 3.7539-1.0078 0.21875-0.58203 1.7578 0.42578 1.5391 5.8906-1.2891 11.789-2.5156 17.703-3.6836 0.089844 1.125 0.25391 2.25 0.48828 3.3828-6.3125 2.625-12.438 5.6797-18.375 9.0898-0.89453 0.51562-0.09375 1.9023 0.8125 1.3906 5.8008-3.3359 11.781-6.332 17.941-8.9023 0.14453 0.54688 0.30078 1.082 0.49219 1.6289 3.3555 9.5469 14.258 16.648 22.281 22.02 4.7695 3.1797 10.035 6.1602 15.574 8.2148 4.6641 14.078 7.1641 28.633 9.2734 43.281 1.0195 7.0234 1.9609 14.055 3.0312 21.078 0.99219 6.4961 1.2695 13.379 4.5586 19.188 0.078125 0.52734 0.42578 0.97266 1.1367 1.0703h0.035156c0.11719 0.023438 0.24609 0.035157 0.36328 0.035157 8.4844 0.67578 8.125-16 8.3477-21.164 0.41406-9.5469 0.30859-19.383-0.089843-29.094 2.6484 15.539-0.039063 31.84 5.1641 46.977 0.054688 0.16406 0.13281 0.29687 0.22266 0.42578 0.039063 0.054687 0.085938 0.11328 0.125 0.16406v0.011719c0.10547 0.11719 0.23047 0.24219 0.37891 0.34766 7.3203 4.8438 9.2344-4.4961 9.8047-9.9727 1.4688-14.164 1.8867-28.449 3.207-42.633 1.457-15.574 7.7461-29.031 16.637-41.691 4.4531-6.3438 9.1094-12.719 14.117-18.637 0.28516-0.33203 0.57031-0.63281 0.85156-0.94141-1.8828 22.281 14.398 40.402 17.148 61.992 1.418 11.098 3.1797 22.445 3.2422 33.656 0.027344 5.5781-0.19531 13.805 5.4219 16.953 0.68359 0.37891 1.3398 0.21875 1.7852-0.17188 0.53125-0.089844 1.0117-0.4375 1.2031-1.1016 7.0117-24.543 5.7773-51.031 5.2695-76.43 0.82813 1.8477 1.6133 3.6953 2.3086 5.5234 4.6602 12.254 7.2539 25.199 9.5703 38.062 2.1055 11.648 2.7344 24.371 8.7422 34.836 0.44922 0.77734 1.2266 0.90625 1.8711 0.66797 0.60938 0.14062 1.3008-0.011719 1.7461-0.66797 7.3086-10.742 5.8398-25.52 5.2188-37.824-0.99219-19.402-1.1133-38.832-1.1523-58.25-0.035156-19.59 2.9688-44.375-4.375-63.965 25.949 7.4141 34.305-28.688 33.809-48.059-0.50781-19.73-10.758-38.191-12.246-57.949-0.875-11.691 2.1836-23.867 10.516-32.418 6.9375-7.1172 18.938-13.957 29.176-12.438 1.8359 0.24219 2.7148-2.1562 1.457-2.9062zm-154.82 136.51c0.023437 0 0.035156-0.011719 0.054687-0.011719-0.24219 0.17188-0.45312 0.33984-0.65625 0.49219 0.20312-0.16406 0.40625-0.32422 0.60156-0.48047zm1.0078-0.82813c0.37109-0.33203 0.71875-0.6875 1.0234-1.082 0.24609-0.11719 0.5-0.24219 0.73828-0.37109-0.56641 0.54687-1.1758 1.0703-1.7578 1.5391l0.003906-0.085938zm59.289 173.62c-4.1328-4.2109-2.4297-14.59-2.6484-19.68-0.41406-9.6367-1.8594-20.137-3.4648-29.652-3.5898-21.195-20.316-39.715-16.52-62.16 0.023438-0.11328 0.027344-0.23047 0.023438-0.33203 3.8984-2.582 8.3789-3.4336 13.535-3.3164 1.9805 12.02 8.4883 23.684 14.023 34.898-0.19531 0.25391-0.32031 0.57031-0.30859 0.97266 0.375 26.16 2.2422 53.762-4.6406 79.27zm56.984-229.2c2.4531 8.6953 5.2695 17.566 5.5039 26.668 0.17188 6.9102-0.83594 13.848-2.5195 20.539-3.543 14.09-12.773 28.609-29.191 22.746-0.17188-0.054687-0.33984-0.089843-0.50391-0.089843-1.6055-3.4648-3.5898-6.7383-6.0469-9.7422-1.3008-1.5977-3.5547 0.67578-2.2578 2.2617 8.5273 10.445 10.164 24.762 10.863 37.754 0.71875 13.266 0.17188 26.645 0.19531 39.91 0.035156 16.984 0.23047 33.969 0.92969 50.949 0.50781 12.48 2.9727 28.012-3.543 39.387-4.9883-9.832-5.6211-21.711-7.5195-32.395-2.1523-12.152-4.7773-24.168-8.7734-35.852-6.5859-19.207-24.008-39.82-20.109-61.074 0.37109-2.0117-2.7109-2.8789-3.0859-0.85156-0.66016 3.5898-0.74609 7.1406-0.41016 10.664-11.008-0.14063-17.293 4.6484-23.902 13.367-8.0977 10.672-16.852 21.402-21.926 33.957-5.707 14.113-6.2148 29.137-7.2461 44.145-0.38672 5.7188-1.0117 11.43-1.3008 17.16-0.13281 2.6875-0.09375 14.559-4.7812 12.281-6.1875-18.879-0.44922-39.543-8.3203-58.25-0.14062-0.33203-0.34766-0.57031-0.58984-0.73438-0.73828-1.2812-3.0977-1.0547-2.9844 0.72266 0.37109 5.9805 3.1602 58.18-3.4102 59.891-3.1914-6.0156-3.3477-13.668-4.3516-20.312-1.0703-7.0234-1.9922-14.066-3.0117-21.102-1.8984-13.137-4.2773-26.188-8.2773-38.852 3.6055 1.0312 7.3008 1.6289 11.039 1.5977 11.973-0.11328 22.18-9.1211 29.961-17.227 1.4336-1.5-0.82812-3.7617-2.2617-2.2617-7.543 7.8516-16.34 15.434-27.691 16.285-9.5469 0.72266-19.336-4.7617-27.16-9.582-8.0195-4.9453-17.121-11.453-21.805-19.82-0.58203-1.0547-1.0195-2.1328-1.3555-3.2383 4.3047-1.6875 8.7031-3.1602 13.188-4.375 0.99609-0.27344 0.57812-1.8125-0.42188-1.5391-4.4805 1.2148-8.8711 2.6836-13.172 4.3516-0.19531-0.90625-0.33984-1.8359-0.40234-2.7891 4.5195-0.88672 9.043-1.7422 13.57-2.582 1.0117-0.18359 0.58203-1.7305-0.42578-1.5391-4.3945 0.8125-8.7852 1.6523-13.184 2.5039 0.003907-0.95312 0.066407-1.9141 0.16797-2.8906 5.9531-0.52734 11.938-0.82812 17.926-1.043 1.0312-0.035157 1.0352-1.6289 0-1.5977-5.9258 0.19531-11.832 0.50391-17.719 1.0195 0.94141-6.0273 3.4336-12.117 5.1758-17.293 0.66016-1.9727-2.4375-2.8008-3.0898-0.85156-0.35156 1.0703-0.72656 2.1445-1.0938 3.2266-0.21094 0.054687-0.42578 0.16406-0.62109 0.33984-3.5117 2.9531-6.8164 6.0469-10.602 8.5391 3.8203-8.5508 9.4375-15.812 17.793-20.652 9.8711-5.7109 21.078-5.4805 32.078-5.6562 3.4062-0.054687 6.8164-0.21875 10.227-0.35938-1.5 2.8555-3.4141 7-1.4883 9.7344 2.4141 3.4219 5.8906 4.168 9.8438 3.5234 5.3711-0.875 10.227-4.2461 15.488-5.6328 10.617-2.8008 12.797 8.7695 12.426 16.32-0.054687 1.082 0.80078 1.5859 1.6367 1.5391 1.7148 2.0117 2.8125 4.3281 3.3438 6.7578-4.9688 0.011719-9.9297 0.10156-14.902 0.29688-1.0312 0.035156-1.0352 1.6406 0 1.5977 5.0586-0.19531 10.121-0.28516 15.176-0.29688 0.089843 0.77734 0.11328 1.5508 0.10156 2.3281-4.9219-0.27344-9.8789-0.23047-14.844-0.21875-1.0352 0-1.0352 1.6055 0 1.5977 4.9375-0.011718 9.8633-0.054687 14.75 0.21875-0.11719 1.1016-0.33984 2.1992-0.65625 3.2695-4.4062-1.2383-8.9102-2.1797-13.453-2.918-1.0078-0.16406-1.4453 1.3789-0.42578 1.5391 4.5078 0.74609 8.9805 1.6641 13.371 2.8906-0.55469 1.4219-1.2773 2.8008-2.1602 4.0703-1.1797 1.707 1.5977 3.3047 2.7656 1.6172 1.0312-1.4883 1.8633-3.0859 2.4883-4.75 2.6055 0.82812 5.1758 1.7812 7.6836 2.918 0.93359 0.42578 1.7461-0.95312 0.80469-1.3789-2.6094-1.1797-5.2812-2.1797-7.9844-3.0508 0.37891-1.3008 0.63281-2.6367 0.76562-3.9805 4.082 0.34766 8.1367 0.97266 12.152 2.0898 0.99609 0.27344 1.4219-1.2695 0.42578-1.5391-4.1211-1.1484-8.2891-1.7812-12.48-2.1445 0.023437-0.83984-0.015625-1.6875-0.10156-2.5273 4.1211 0.035156 8.2422 0.11328 12.371 0.26172 1.0312 0.042968 1.0234-1.5625 0-1.5977-4.1992-0.16406-8.3984-0.24219-12.602-0.27344-0.37109-2.043-1.0586-4.0391-2.082-5.875 4.1484 0.69922 8.2891 1.5273 12.156 3.2031 0.78516 0.33984 1.5234 0.054687 1.9805-0.46094 0.72266-0.37891 1.1875-1.25 0.63281-2.1562-6.8164-11.289-14.547-22.812-27.332-27.727-11.312-4.3398-24.371-2.8672-36.477-2.2617 0.14453-1.9375-0.042969-4.4062 0.54688-6.3906 4.4258 3.1289 8.8867 3.1484 14.18 1.6406 3.2969-0.94141 6.457-2.3984 9.7031-3.5 2.2109-0.75781 7.4141-0.078125 8.8125-1.6641 3.6133-4.082 9.8516-6.2344 10.652-12.23 0.66797-4.9102-6.8281-3.3711-5.543-9.3984 0.035157-0.16406 0.039063-0.33203 0.027344-0.48047 0.86719-2.0898 2.4258-2.5273 4.3008-2.0898 0.23437 0.12891 0.51562 0.20703 0.80469 0.23047 0.054687 0.011718 0.10547 0.023437 0.15625 0.042968 1.3047 0.46094 2.1094-0.77734 1.9102-1.8477 0.37109-0.58203 0.85156-0.98438 1.4102-1.2812-1.2383 8.5742 6.1367 13.082 13.176 16.699 4.793 2.457 9.8516 4.6914 13.625 8.6523 4.168 4.375 1.8359 10.434 1.5195 15.719-0.57031 9.6602 9.0273 8.3008 11.633 0.69922 1.7422-5.0977 0.48047-11.34-0.48047-16.469-1.7031-9.0781-5.3359-17.477-8.2148-26.188 1.9258-0.15234 3.7695-0.035157 5.4141 0.97266 0.20703 0.52734 0.67578 0.95312 1.418 0.96484 2.3789 0.042968 4.6797 0.44922 6.9648 1.0078-0.039063 0.078125-0.085937 0.14062-0.11719 0.20703-1.1523 0.60938-0.86719 2.8789 0.82812 3.0625 3.0742 0.32031 6.1562 0.44922 9.168 1.0586-0.10547 0.11719-0.20703 0.23047-0.30078 0.37109-0.33594 0.46094-0.34766 0.92969-0.19141 1.3086-0.023438 0.64453 0.32031 1.2812 1.1484 1.4688 1.6953 0.35938 3.3281 0.97266 4.9766 1.5-0.67578 0.66797-0.85156 1.9375 0.19141 2.6055 1.0117 0.65625 2.0625 1.25 3.0781 1.8828 1.1797 0.73438 1.7734 2.168 2.8945 2.8125 1.7852 1.0547 5.3125-0.11328 6.9062-1.1367 3.0469-1.9727 2.9922-5.4609 1.8555-8.4688 1.0469 0.11328 1.875-0.90625 1.7031-2.0117-0.46875-3.0625-1.9219-5.7617-3.7109-8.2266h0.039063c1.4883 0 2-1.707 1.1328-2.7344-1.5234-1.8047-3.1758-3.4766-4.9492-5.0273 1.1328-0.33984 1.4453-1.6953 0.67578-2.6484-1.3047-1.6523-2.5703-3.3359-3.9141-4.957h0.22266c1.125 0 2.1172-1.3984 1.3828-2.4062-1.6914-2.3398-3.5117-4.582-5.2656-6.8711 0.57812-0.011718 1.1523-0.054687 1.7461-0.17187 1.0352-0.20703 1.4453-1.5 0.96484-2.3516-0.65625-1.1367-1.1133-2.375-1.6016-3.6016 0.88672-0.14062 1.6289-1.0078 1.332-1.9883-1.2891-4.3008-3.9688-7.8398-6.1641-11.68 0.39062 0.023437 0.78906 0.042968 1.2031 0.042968 0.86328 0 1.6172-0.73437 1.6016-1.5977-0.039062-1.9492-0.34766-3.8906-0.83594-5.7852 1.0547 0.29688 2.0117-0.29688 2.1172-1.4766 0.51563-5.6211-1.2305-11.004-2.9219-16.328 0.83984 0.4375 1.707 0.85156 2.6094 1.2266 1.0117 0.42578 1.9805-0.60938 2.0273-1.5391 0.20703-4.4961-0.72266-8.9141-0.94141-13.367 0.25391 0.28516 0.50391 0.57031 0.76562 0.83984 0.71875 0.74609 2 0.55859 2.5156-0.33203 1.4336-2.4688 2.1445-5.1758 2.6875-7.9297 0.44141 0.33203 0.94141 0.58984 1.5195 0.71094 0.16797 0.035156 0.33203 0.035156 0.48828 0.042968-1.832 8.9727-0.96484 17.281 3.6406 25.531 0.39062 0.71094 1.4883 1.0703 2.1914 0.58203 0.29297-0.20703 0.53906-0.37891 0.75781-0.54688 0.41406 1.5508 0.90625 3.0859 1.1602 4.7148 0.19531 1.2031 1.9141 1.5117 2.6836 0.69922 1.25-1.3203 2.3633-2.6719 3.4102-4.0977 0.29688 0.6875 0.58203 1.3789 0.74609 2.1094 0.29688 1.3203 2.3086 1.6055 2.9219 0.39062 0.58203-1.1602 1.2109-2.2852 1.832-3.4102 0.62109 0.86328 1.3086 1.6758 2.0547 2.4531 0.71875 0.74609 2 0.55859 2.5156-0.33203 0.19531-0.33984 0.42578-0.65625 0.66797-0.97266 0.37109 0.35938 0.77734 0.65625 1.1914 0.80078 0.65625 0.23047 1.3008 0.24219 1.9141-0.11719 0.035157-0.023438 0.0625-0.054688 0.09375-0.078125 1.1406 9.6328 3.9531 19.234 6.4102 27.98zm-106.63 98.574c-0.10547-0.11719-0.20312-0.24219-0.3125-0.34766 0.003907-0.33203 0.003907-0.64453 0-0.97266 3.8242 0.65625 7.7383 1.1719 11.207 2.9609 0.4375 0.21875 0.86328 0.23047 1.2305 0.11328 0.18359 0.29688 0.36328 0.58984 0.54688 0.875-3.9219-1.25-7.9727-1.9492-12.078-2.6367-0.21484-0.039063-0.41016-0.027344-0.59375 0.007812zm7.6094-4.8789c0.011718-0.035156 0.023437-0.054688 0.027343-0.089844 0.023438 0.035156 0.050781 0.066406 0.074219 0.10156-0.039062 0-0.074219-0.011719-0.10156-0.011719zm-2.6992-2.1211c-0.54688-0.15234-1.0938-0.33203-1.6367-0.50391-1.1719-0.37109-2.3359-0.77734-3.5352-1.043-0.33984-0.078125-0.63672-0.042969-0.90625 0.042969-1.3555-4.9766-4.5312-8.8125-10.938-10.109-3.5781-0.72266-7.6055 1.0586-10.797 2.4062-2.6836 1.1367-5.3359 2.3203-8.1133 3.2031-2.4961 0.80078-8.4336 1.5-7.6328-4.1758 0.25781-1.8594 1.3477-3.6133 2.2109-5.2422 0.10547-0.19531 0.15234-0.37891 0.17969-0.57031 7.3633-0.25391 14.711-0.19531 21.98 1.457 8.5234 1.9375 14.918 7.582 20.184 14.273-0.36328-0.015626-0.69922 0.085937-0.99609 0.26172z"/>
  <path d="m397.15 252.16c-0.92969-0.10156-1.4219 0.49219-1.5117 1.1914-0.35938 0.25391-0.58984 0.66797-0.51953 1.2695 0.71094 6.1367 5.9141 9.0664 11.426 10.512 1.2305 0.32031 2.2109-0.78906 1.9648-1.9727-1.168-5.6758-5.5078-10.312-11.359-11zm3.168 6.457c0.35938 0.30859 0.74609 0.59766 1.125 0.88672 0.066407 0.054688 0.125 0.11328 0.18359 0.17188-0.46875-0.32031-0.90234-0.67969-1.3086-1.0586z"/>
  <path d="m420.1 277.32c-1.1211-2.5938-4.4805-3.2578-7-3.3711-0.81641-0.66797-2.2383-0.58203-2.5469 0.73438-0.23047 0.98437-0.26172 1.9375-0.003907 2.8789 0.17969 2.1445 0.60938 4.3281 1.9922 6.0352 0.99609 1.2266 2.7109 1.7188 4.1992 1.2383 3.0469-0.98047 4.6016-4.625 3.3594-7.5156zm-2.8281 1.4805c0.003906 0.011719 0.003906 0.011719 0.003906 0.023437 0.015625 0.042969 0.023437 0.089844 0.039062 0.14063-0.027344-0.089844-0.066406-0.16406-0.09375-0.25391 0.003906 0.023438 0.011719 0.023438 0.023438 0.035157 0.011718 0.03125 0.015625 0.03125 0.027344 0.054687z"/>
  <path d="m419.77 295.62c-0.29297 0.17187-0.53906 0.44922-0.68359 0.83984-3.3203 8.9023 2.543 17.008 5.1523 25.441 0.89062 2.9102 3.0508 13.641 7.4023 13.641 5.4258 0 2.9688-12.543 2.2383-15.344-2.1719-8.3008-5.8008-18.441-11.699-24.871-0.80078-0.88672-1.8984-0.48438-2.4102 0.29297z"/>
  <path d="m324.43 229.72c19.504-21.195 46.73-17.742 69.777-4.4531 1.793 1.043 3.3984-1.7305 1.6172-2.7656-24.293-14.012-53.199-17.281-73.664 4.957-1.3867 1.5117 0.87109 3.7852 2.2695 2.2617z"/>
  <path d="m339.04 208.62c9.7227-6.0352 24.141-7.9648 34.676-2.9844 1.8594 0.875 3.4844-1.8945 1.6172-2.7656-11.586-5.4727-27.148-3.6836-37.906 2.9844-1.7461 1.082-0.13672 3.8594 1.6133 2.7656z"/>
  <path d="m278.37 251.59c1.0039 1.8125 3.7695 0.19531 2.7656-1.6055-2.7227-4.9102-5.9688-9.5156-8.5391-14.516-0.94141-1.8359-3.7031-0.21875-2.7617 1.6055 2.5664 5 5.8125 9.6172 8.5352 14.516z"/>
  <path d="m240.53 253.02c4.1992 2.9609 8.2031 6.1719 12.051 9.5703 1.5391 1.3555 3.8203-0.89453 2.2617-2.2617-4.0547-3.5898-8.2812-6.957-12.707-10.074-1.6836-1.1953-3.2812 1.582-1.6055 2.7656z"/>
  <path d="m216.57 277.93c6.4531 1.0078 12.426 3.7422 18.781 5.1289 2.0117 0.4375 2.8711-2.6484 0.84375-3.0859-6.3555-1.3906-12.332-4.1211-18.781-5.1289-2.0078-0.30859-2.875 2.7773-0.84375 3.0859z"/>
  <path d="m219.57 305.96c-5.2695 0-10.535 0.023438-15.793 0.42578-2.043 0.16406-2.0547 3.3594 0 3.2031 5.2578-0.40234 10.523-0.42578 15.793-0.42578 2.0664 0 2.0664-3.2031 0-3.2031z"/>
  <path d="m234.5 346.14c-5.9805 1.6875-12.039 3.0859-17.926 5.1289-1.9375 0.66797-1.1016 3.7617 0.85156 3.0859 5.8789-2.043 11.945-3.4453 17.926-5.1289 1.9883-0.55859 1.1484-3.6445-0.85156-3.0859z"/>
  <path d="m253.34 357.83c-6.4727 3.9609-12.254 8.793-17.832 13.91-1.5234 1.3984 0.74609 3.6523 2.2617 2.2617 5.3711-4.9453 10.938-9.6055 17.176-13.418 1.7578-1.0664 0.15234-3.8359-1.6055-2.7539z"/>
  <use x="70" y="644" xlink:href="#v"/>
  <use x="90.550781" y="644" xlink:href="#b"/>
  <use x="104.359375" y="644" xlink:href="#d"/>
  <use x="123.347656" y="644" xlink:href="#c"/>
  <use x="142.242188" y="644" xlink:href="#e"/>
  <use x="155.628906" y="644" xlink:href="#d"/>
  <use x="174.617188" y="644" xlink:href="#l"/>
  <use x="204.410156" y="644" xlink:href="#k"/>
  <use x="224.453125" y="644" xlink:href="#f"/>
  <use x="252.453125" y="644" xlink:href="#j"/>
  <use x="275.433594" y="644" xlink:href="#c"/>
  <use x="294.328125" y="644" xlink:href="#u"/>
  <use x="314.371094" y="644" xlink:href="#c"/>
  <use x="333.265625" y="644" xlink:href="#i"/>
  <use x="359.679688" y="644" xlink:href="#t"/>
  <use x="381.351562" y="644" xlink:href="#b"/>
  <use x="395.15625" y="644" xlink:href="#f"/>
  <use x="413.410156" y="644" xlink:href="#a"/>
  <use x="442.394531" y="644" xlink:href="#h"/>
  <use x="462.914062" y="644" xlink:href="#b"/>
  <use x="476.726562" y="644" xlink:href="#c"/>
  <use x="495.617187" y="644" xlink:href="#i"/>
  <use x="512.285156" y="644" xlink:href="#a"/>
  <use x="531.523437" y="644" xlink:href="#g"/>
  <use x="541.117187" y="644" xlink:href="#a"/>
  <use x="70" y="672" xlink:href="#s"/>
  <use x="82.183594" y="672" xlink:href="#b"/>
  <use x="95.992188" y="672" xlink:href="#a"/>
  <use x="115.226562" y="672" xlink:href="#r"/>
  <use x="154.152344" y="672" xlink:href="#e"/>
  <use x="167.535156" y="672" xlink:href="#q"/>
  <use x="187.46875" y="672" xlink:href="#d"/>
  <use x="216.207031" y="672" xlink:href="#p"/>
  <use x="239.640625" y="672" xlink:href="#a"/>
  <use x="258.878906" y="672" xlink:href="#o"/>
  <use x="278.8125" y="672" xlink:href="#n"/>
  <use x="308.492188" y="672" xlink:href="#h"/>
  <use x="329.015625" y="672" xlink:href="#b"/>
  <use x="342.820312" y="672" xlink:href="#a"/>
  <use x="362.058594" y="672" xlink:href="#g"/>
  <use x="371.65625" y="672" xlink:href="#d"/>
  <use x="390.648438" y="672" xlink:href="#m"/>
  <use x="407.242188" y="672" xlink:href="#e"/>
 </g>
</svg>
