<?xml version="1.0" ?><svg id="icons" viewBox="0 0 512 512" xmlns="http://www.w3.org/2000/svg"><defs><style>.cls-1{fill:none;stroke:#808285;stroke-miterlimit:10;stroke-width:7px;}</style></defs><path class="cls-1" d="m437.81,195.72c-4.65,13.85 -14.67,27.17 -24.36,40.05c-6.68,8.87 -15.21,20.09 -19.53,28.84l0,-41.73c0.29,-0.38 0.58,-0.77 0.87,-1.15c22.91,-30.45 28.6,-43.24 14.85,-54.37c-5.01,-4.06 -5.79,-11.41 -1.73,-16.42c4.05,-5.01 11.4,-5.78 16.41,-1.73c14.98,12.13 19.64,28.2 13.49,46.51l0,-1l0,1z" id="svg_4"/>
   <path class="cls-1" d="m393.92,195.23l0,128.18c0,38.2 -30.97,69.17 -69.17,69.17l-138.64,0c-38.2,0 -69.17,-30.97 -69.17,-69.17l0,-120.18c0,-30.55 19.79,-56.46 47.25,-65.63c1.72,-0.58 3.07,-1.94 3.65,-3.66l11.88,-35.16c1.32,-3.92 6.37,-4.98 9.16,-1.92l32.04,35.09l0.02,0.02c1.16,1.28 2.75,2.09 4.48,2.09l59.52,0c1.73,0 3.32,-0.81 4.48,-2.09l0.02,-0.02l32.04,-35.09c2.79,-3.06 7.84,-2 9.16,1.92l11.81,34.97c0.59,1.74 1.95,3.11 3.7,3.68c27.72,9.01 47.77,35.06 47.77,65.8l0,120.18l0,-119.18l0,-2l0,-1l0,-1l0,-1l0,-1l0,-1l0,-1l0,-1z" id="svg_5"/>
   <circle class="cls-1" cx="255.73" cy="258.65" id="svg_6" r="52.04"/>
   <circle class="cls-1" cx="334.51" cy="189.63" id="svg_7" r="10.54"/></svg>