<?xml version="1.0"?>
<svg width="640" height="480" xmlns="http://www.w3.org/2000/svg" xmlns:svg="http://www.w3.org/2000/svg" xmlns:xlink="http://www.w3.org/1999/xlink">
 <!-- Created with SVG-edit - https://github.com/SVG-Edit/svgedit-->
 <defs>
  <symbol id="svg_5" version="1.1" viewBox="0 0 100 100" xmlns="http://www.w3.org/2000/svg">
   <defs>
    <linearGradient id="svg_2" x1="0" x2="1" y1="1" y2="0">
     <stop id="svg_4" offset="0%" stop-color="rgba(180, 215, 217, 1)"/>
     <stop id="svg_3" offset="100%" stop-color="rgba(180, 215, 217, 1)"/>
    </linearGradient>
   </defs>
   <path d="m14.8,-5.1c5.3,5.6 11,14.5 8.6,19.3c-2.4,4.8 -12.9,5.5 -22.4,5c-9.5,-0.6 -18,-2.5 -24.5,-9.7c-6.5,-7.1 -10.9,-19.5 -6.6,-24.6c4.2,-5.1 17.2,-2.9 26,-0.6c8.9,2.4 13.7,4.9 18.9,10.6z" fill="url(#svg_2)" stroke="url(#svg_2)" stroke-width="0" transform="translate(50 50)"/>
  </symbol>
  <symbol id="svg_11" version="1.1" viewBox="0 0 100 100" xmlns="http://www.w3.org/2000/svg">
   <defs>
    <linearGradient id="svg_8" x1="0" x2="1" y1="1" y2="0">
     <stop id="svg_10" offset="0%" stop-color="rgba(180, 215, 217, 1)"/>
     <stop id="svg_9" offset="100%" stop-color="rgba(180, 215, 217, 1)"/>
    </linearGradient>
   </defs>
   <path d="m18.5,-23.4c2.9,7.7 0.7,15.6 1,23.7c0.3,8.1 2.9,16.5 0.1,24.7c-2.8,8.3 -11.2,16.5 -20.6,17.5c-9.3,1 -19.6,-5.3 -26.9,-13.6c-7.3,-8.3 -11.6,-18.6 -8.6,-25.9c3,-7.4 13.2,-11.8 20.5,-19.4c7.2,-7.7 11.6,-18.6 17.7,-20.4c6.1,-1.7 14,5.8 16.8,13.4z" fill="url(#svg_8)" stroke="url(#svg_8)" stroke-width="0" transform="translate(50 50)"/>
  </symbol>
 </defs>
 <g class="layer">
  <title>Layer 1</title>
  <use id="svg_6" transform="matrix(1 0 0 1 0 0) matrix(1.05348 0 0 1.05348 18.6273 8.25468)" x="-161.87" xlink:href="#svg_5" y="-150"/>
  <use id="svg_12" transform="matrix(0.835797 0 0 0.835797 305.397 283.807)" x="-69.11" xlink:href="#svg_11" y="-235.27"/>
 </g>
</svg>