<?xml version="1.0" standalone="no"?><svg xmlns="http://www.w3.org/2000/svg" viewBox="0 0 1440 320"><path fill="#6073a1" fill-opacity="1" d="M0,288L17.1,266.7C34.3,245,69,203,103,165.3C137.1,128,171,96,206,101.3C240,107,274,149,309,160C342.9,171,377,149,411,160C445.7,171,480,213,514,234.7C548.6,256,583,256,617,229.3C651.4,203,686,149,720,138.7C754.3,128,789,160,823,154.7C857.1,149,891,107,926,106.7C960,107,994,149,1029,170.7C1062.9,192,1097,192,1131,213.3C1165.7,235,1200,277,1234,277.3C1268.6,277,1303,235,1337,218.7C1371.4,203,1406,213,1423,218.7L1440,224L1440,320L1422.9,320C1405.7,320,1371,320,1337,320C1302.9,320,1269,320,1234,320C1200,320,1166,320,1131,320C1097.1,320,1063,320,1029,320C994.3,320,960,320,926,320C891.4,320,857,320,823,320C788.6,320,754,320,720,320C685.7,320,651,320,617,320C582.9,320,549,320,514,320C480,320,446,320,411,320C377.1,320,343,320,309,320C274.3,320,240,320,206,320C171.4,320,137,320,103,320C68.6,320,34,320,17,320L0,320Z"></path></svg>